<svg id="eXeiF8t3Qbr1" xmlns="http://www.w3.org/2000/svg" xmlns:xlink="http://www.w3.org/1999/xlink" viewBox="0 0 383 416" shape-rendering="geometricPrecision" text-rendering="geometricPrecision"><defs><linearGradient id="eXeiF8t3Qbr35-fill" x1="54.5954" y1="58.9779" x2="96.478" y2="100.8605" spreadMethod="pad" gradientUnits="userSpaceOnUse" gradientTransform="translate(0 0)"><stop id="eXeiF8t3Qbr35-fill-0" offset="0%" stop-color="#ffe53b"/><stop id="eXeiF8t3Qbr35-fill-1" offset="100%" stop-color="#ffa200"/></linearGradient><linearGradient id="eXeiF8t3Qbr36-fill" x1="69.6238" y1="78.0749" x2="84.1096" y2="117.8743" spreadMethod="pad" gradientUnits="userSpaceOnUse" gradientTransform="translate(0 0)"><stop id="eXeiF8t3Qbr36-fill-0" offset="0%" stop-color="#fff73b"/><stop id="eXeiF8t3Qbr36-fill-1" offset="100%" stop-color="#ffba00"/></linearGradient><linearGradient id="eXeiF8t3Qbr77-fill" x1="250.708123" y1="128.404534" x2="308.536593" y2="173.385686" spreadMethod="pad" gradientUnits="userSpaceOnUse" gradientTransform="translate(0 0)"><stop id="eXeiF8t3Qbr77-fill-0" offset="0%" stop-color="#ffe53b"/><stop id="eXeiF8t3Qbr77-fill-1" offset="100%" stop-color="#ffa200"/></linearGradient><linearGradient id="eXeiF8t3Qbr78-fill" x1="252.305527" y1="134.546269" x2="279.948099" y2="188.511533" spreadMethod="pad" gradientUnits="userSpaceOnUse" gradientTransform="translate(0 0)"><stop id="eXeiF8t3Qbr78-fill-0" offset="0%" stop-color="#fff73b"/><stop id="eXeiF8t3Qbr78-fill-1" offset="100%" stop-color="#ffba00"/></linearGradient><linearGradient id="eXeiF8t3Qbr119-fill" x1="250.708123" y1="128.404534" x2="308.536593" y2="173.385686" spreadMethod="pad" gradientUnits="userSpaceOnUse" gradientTransform="translate(0 0)"><stop id="eXeiF8t3Qbr119-fill-0" offset="0%" stop-color="#ffe53b"/><stop id="eXeiF8t3Qbr119-fill-1" offset="100%" stop-color="#ffa200"/></linearGradient><linearGradient id="eXeiF8t3Qbr120-fill" x1="252.305527" y1="134.546269" x2="279.948099" y2="188.511533" spreadMethod="pad" gradientUnits="userSpaceOnUse" gradientTransform="translate(0 0)"><stop id="eXeiF8t3Qbr120-fill-0" offset="0%" stop-color="#fff73b"/><stop id="eXeiF8t3Qbr120-fill-1" offset="100%" stop-color="#ffba00"/></linearGradient><linearGradient id="eXeiF8t3Qbr161-fill" x1="250.708123" y1="128.404534" x2="308.536593" y2="173.385686" spreadMethod="pad" gradientUnits="userSpaceOnUse" gradientTransform="translate(0 0)"><stop id="eXeiF8t3Qbr161-fill-0" offset="0%" stop-color="#ffe53b"/><stop id="eXeiF8t3Qbr161-fill-1" offset="100%" stop-color="#ffa200"/></linearGradient><linearGradient id="eXeiF8t3Qbr162-fill" x1="252.305527" y1="134.546269" x2="279.948099" y2="188.511533" spreadMethod="pad" gradientUnits="userSpaceOnUse" gradientTransform="translate(0 0)"><stop id="eXeiF8t3Qbr162-fill-0" offset="0%" stop-color="#fff73b"/><stop id="eXeiF8t3Qbr162-fill-1" offset="100%" stop-color="#ffba00"/></linearGradient><linearGradient id="eXeiF8t3Qbr203-fill" x1="250.708123" y1="128.404534" x2="308.536593" y2="173.385686" spreadMethod="pad" gradientUnits="userSpaceOnUse" gradientTransform="translate(0 0)"><stop id="eXeiF8t3Qbr203-fill-0" offset="0%" stop-color="#ffe53b"/><stop id="eXeiF8t3Qbr203-fill-1" offset="100%" stop-color="#ffa200"/></linearGradient><linearGradient id="eXeiF8t3Qbr204-fill" x1="252.305527" y1="134.546269" x2="279.948099" y2="188.511533" spreadMethod="pad" gradientUnits="userSpaceOnUse" gradientTransform="translate(0 0)"><stop id="eXeiF8t3Qbr204-fill-0" offset="0%" stop-color="#fff73b"/><stop id="eXeiF8t3Qbr204-fill-1" offset="100%" stop-color="#ffba00"/></linearGradient><linearGradient id="eXeiF8t3Qbr245-fill" x1="250.708123" y1="128.404534" x2="308.536593" y2="173.385686" spreadMethod="pad" gradientUnits="userSpaceOnUse" gradientTransform="translate(0 0)"><stop id="eXeiF8t3Qbr245-fill-0" offset="0%" stop-color="#ffe53b"/><stop id="eXeiF8t3Qbr245-fill-1" offset="100%" stop-color="#ffa200"/></linearGradient><linearGradient id="eXeiF8t3Qbr246-fill" x1="252.305527" y1="134.546269" x2="279.948099" y2="188.511533" spreadMethod="pad" gradientUnits="userSpaceOnUse" gradientTransform="translate(0 0)"><stop id="eXeiF8t3Qbr246-fill-0" offset="0%" stop-color="#fff73b"/><stop id="eXeiF8t3Qbr246-fill-1" offset="100%" stop-color="#ffba00"/></linearGradient><linearGradient id="eXeiF8t3Qbr287-fill" x1="250.708123" y1="128.404534" x2="308.536593" y2="173.385686" spreadMethod="pad" gradientUnits="userSpaceOnUse" gradientTransform="translate(0 0)"><stop id="eXeiF8t3Qbr287-fill-0" offset="0%" stop-color="#ffe53b"/><stop id="eXeiF8t3Qbr287-fill-1" offset="100%" stop-color="#ffa200"/></linearGradient><linearGradient id="eXeiF8t3Qbr288-fill" x1="252.305527" y1="134.546269" x2="279.948099" y2="188.511533" spreadMethod="pad" gradientUnits="userSpaceOnUse" gradientTransform="translate(0 0)"><stop id="eXeiF8t3Qbr288-fill-0" offset="0%" stop-color="#fff73b"/><stop id="eXeiF8t3Qbr288-fill-1" offset="100%" stop-color="#ffba00"/></linearGradient><linearGradient id="eXeiF8t3Qbr329-fill" x1="250.708123" y1="128.404534" x2="308.536593" y2="173.385686" spreadMethod="pad" gradientUnits="userSpaceOnUse" gradientTransform="translate(0 0)"><stop id="eXeiF8t3Qbr329-fill-0" offset="0%" stop-color="#ffe53b"/><stop id="eXeiF8t3Qbr329-fill-1" offset="100%" stop-color="#ffa200"/></linearGradient><linearGradient id="eXeiF8t3Qbr330-fill" x1="252.305527" y1="134.546269" x2="279.948099" y2="188.511533" spreadMethod="pad" gradientUnits="userSpaceOnUse" gradientTransform="translate(0 0)"><stop id="eXeiF8t3Qbr330-fill-0" offset="0%" stop-color="#fff73b"/><stop id="eXeiF8t3Qbr330-fill-1" offset="100%" stop-color="#ffba00"/></linearGradient></defs><g transform="translate(0 0.000001)"><g id="eXeiF8t3Qbr3" transform="matrix(-.085322-.791062 0.791062-.085322 112.3199-54.290486)"><g><path d="M120.66,35.32c-1.35-.72-10.37-5.75-11.78-6.2c0,0,9.63,11.15,12.13,22.7c3.07,14.13.33,35.94-7.45,47.84-28.86,44.19-61.01,36.51-61.01,36.51c1.25.98,10.33,5.44,11.77,6.19c19.39,10.22,47.72-5.48,63.28-35.03c15.55-29.56,12.46-61.81-6.94-72.01Z" fill="#ed8203"/><g><path d="M67.79,135.56c-2.27.49-4.27.72-6.12.87c3.7,2.04,7.18,4.48,10.98,6.41c1.62.82,3.18,1.69,4.77,2.52c2.46-.02,4.98-.28,7.52-.86-.89-.5-1.8-1.02-2.73-1.49-4.86-2.43-9.86-4.49-14.42-7.45Z" fill="#c66802"/><path d="M105.76,110.17c4.98,2.73,9.89,5.59,14.8,8.37c1.25-1.66,2.44-3.41,3.58-5.23-5.03-2.43-10.47-4.18-15.26-7-1.04,1.38-2.08,2.59-3.12,3.86Z" fill="#c66802"/><path d="M83.58,129.32c4.04,2.11,8.05,4.31,12.01,6.54c1.38.79,2.71,1.62,4.06,2.48c1.5-.93,3-1.93,4.49-3.01-5.52-2.77-11.04-5.57-16.49-8.51-1.38.93-2.73,1.75-4.07,2.5Z" fill="#c66802"/><path d="M73.82,133.76c4.42,2.79,9.43,4.45,14.05,7.01c1.06.58,2.1,1.23,3.15,1.88c1.19-.47,2.4-.98,3.6-1.56-5.3-3.15-10.53-6.56-15.88-9.29-1.72.77-3.33,1.41-4.92,1.96Z" fill="#c66802"/><path d="M91.69,123.92c5.4,2.85,10.83,5.63,16.29,8.35c1.05-.89,2.09-1.83,3.11-2.81-5.45-2.45-10.78-5.09-15.67-8.58-1.26,1.09-2.5,2.09-3.73,3.04Z" fill="#c66802"/><path d="M98.74,117.83c4.84,3.39,10.19,5.91,15.62,8.31c1.19-1.29,2.35-2.64,3.51-4.02-5.01-2.87-9.99-5.76-15.03-8.51-1.37,1.51-2.75,2.9-4.1,4.22Z" fill="#c66802"/><path d="M113.55,99.65c-.7,1.08-1.4,2.1-2.09,3.11c4.59,2.81,9.87,4.57,14.83,6.89.43-.79.9-1.53,1.31-2.32.53-.98.95-1.96,1.43-2.95-4.6-2.56-9.15-5.28-13.98-7.44-.5.92-.96,1.88-1.5,2.71Z" fill="#c66802"/><path d="M122.11,67.8c-.09,1.91-.24,3.84-.44,5.76c4.91,2.5,9.88,4.96,14.86,7.37.31-1.87.5-3.71.66-5.53-.78-.44-1.58-.86-2.38-1.26-4.26-2.06-8.48-4.2-12.7-6.34Z" fill="#c66802"/><path d="M132.75,62.75c-3.57-1.94-7.3-3.57-10.91-5.38.19,1.77.28,3.61.32,5.5c4.87,2.48,9.84,4.84,14.71,7.34.19.1.37.21.57.31.02-1.78-.07-3.51-.19-5.23-1.47-.83-2.96-1.7-4.5-2.54Z" fill="#c66802"/><path d="M125.61,48.93c-2.26-1.07-4.46-2.18-6.61-3.38.83,2.04,1.54,4.16,2,6.27c0,.03,0,.07,0,.09c3.94,2.13,8.09,3.82,12.02,5.97c1.2.64,2.38,1.33,3.57,2.04-.36-2.09-.9-4.07-1.51-5.99-3.13-1.72-6.25-3.48-9.47-5Z" fill="#c66802"/><path d="M111.72,32.81c.94,1.31,2.01,2.87,3.09,4.65c4.58,3.67,9.83,6.07,15.11,8.59.8.39,1.59.83,2.39,1.24-1.28-2.36-2.81-4.52-4.59-6.43-5.39-2.54-10.85-5.13-16-8.05Z" fill="#c66802"/><path d="M119.91,83.61c4.79,2.35,9.68,4.5,14.5,6.76.47-1.65.88-3.29,1.24-4.9-4.91-2.38-9.78-4.83-14.66-7.28-.3,1.84-.65,3.64-1.08,5.42Z" fill="#c66802"/><path d="M116.94,92.95c4.83,2.13,9.32,4.89,13.9,7.46.82-1.92,1.55-3.86,2.21-5.78-4.76-2.25-9.59-4.38-14.32-6.67-.53,1.73-1.14,3.4-1.79,4.99Z" fill="#c66802"/></g><path d="M113.55,99.65C98.1,123.3,81.69,132.1,69.81,135.14c6.13,2.75,12.39,5.29,18.2,8.62c14.59-4.47,29.6-17.56,39.49-36.27-4.53-2.83-9.07-5.61-13.74-8.21-.08.12-.11.26-.21.37Z" opacity="0.25" fill="#ffee52"/><path d="M82.73,129.98c5.23,2.95,10.34,6.13,15.47,9.25c7.71-4.43,15.14-11.11,21.51-19.57-4.79-3.02-9.76-5.77-14.8-8.38-7.62,8.99-15.22,14.91-22.18,18.7Z" opacity="0.28" fill="#ffee52"/><g><path d="M87.52,127.07c5.53,2.57,10.83,5.62,16.17,8.55c1.65-1.24,3.29-2.55,4.92-3.97-5.37-2.75-10.7-5.53-16.03-8.28-1.71,1.37-3.39,2.58-5.06,3.7Z" opacity="0.35" fill="#ffee52"/><path d="M82.73,129.98c5.23,2.95,10.34,6.13,15.47,9.25.46-.27.89-.61,1.35-.9-5.46-3-10.92-5.99-16.67-8.45-.05.03-.1.08-.15.1Z" opacity="0.35" fill="#ffee52"/><path d="M96.25,120.25c5.26,2.74,10.49,5.45,15.76,8.15.62-.61,1.22-1.3,1.85-1.95-5.31-2.55-10.52-5.27-15.72-8.03-.62.61-1.27,1.26-1.89,1.83Z" opacity="0.35" fill="#ffee52"/><path d="M103.9,112.42c5.09,2.63,10.2,5.25,15.31,7.86.17-.2.34-.41.52-.62-4.79-3.02-9.76-5.77-14.8-8.38-.35.4-.7.75-1.03,1.14Z" opacity="0.35" fill="#ffee52"/></g><path d="M108.87,29.12C89.48,18.91,61.14,34.59,45.58,64.15c-15.55,29.56-12.45,61.8,6.96,72.02c19.37,10.19,47.72-5.48,63.28-35.03c15.56-29.57,12.44-61.82-6.95-72.02Z" fill="#fcd517"/><path d="M108.87,29.12c-16.86-8.88-40.41,1.89-56.52,24.23c16.25-3.68,33.01-6.17,49.49-7.01c7.11-.36,14.17-.1,21.22.44-2.7-7.86-7.44-14.11-14.19-17.66Z" fill="#ffbc00"/><path d="M45.58,64.15c-1.23,2.32-2.28,4.68-3.29,7.02c10.03-5.03,20.19-9.72,30.66-13.5-8.53,1.17-17.06,2.44-25.6,3.4-.59,1.02-1.21,2.01-1.77,3.08Z" fill="#ffbc00"/><path d="M68.9,87.67c-9.86.87-21.53,1.31-31.29-2.15-5.14,22.38.17,42.88,14.93,50.64c19.37,10.19,47.72-5.48,63.28-35.03c6.53-12.41,9.73-25.27,9.86-36.8-1.49,1.09-2.99,2.16-4.52,3.19C105.55,77.94,87.79,85.96,68.9,87.67Z" opacity="0.54" fill="#fff7ab"/><path d="M38.44,118.81c2.71,7.73,7.42,13.84,14.1,17.35c19.37,10.19,47.72-5.48,63.28-35.03c1.28-2.43,2.38-4.86,3.39-7.31-10.04,7.41-20.81,13.96-32.19,18.8-11.8,5-33.21,10.47-48.58,6.19Z" opacity="0.54" fill="#fff7ab"/><path d="M68.9,87.67c-9.86.87-21.53,1.31-31.29-2.15-.81,3.54-1.28,6.99-1.57,10.39c23.02,10.67,48.81,2.53,69.86-11.8c6.94-4.73,13.29-10.06,19.55-15.52.1-1.43.2-2.85.22-4.26-1.49,1.09-2.99,2.16-4.52,3.19-15.6,10.42-33.36,18.44-52.25,20.15Z" opacity="0.54" fill="#fff7ab"/><g><path d="M113.99,97.48c-23.98,41.06-49.68,41.05-56.94,40.5c19.06,5.91,44.38-9.51,58.77-36.85c11.76-22.35,12.84-46.2,4.3-60.94c6.46,14.84,5.6,37.19-6.13,57.29Z" fill="#ffffd7"/></g><path d="M98.02,37.2c-13.27-6.99-34.09,6.48-46.51,30.07-12.42,23.6-11.73,48.39,1.54,55.36c13.27,6.99,34.08-6.49,46.5-30.07c12.42-23.6,11.73-48.38-1.53-55.36Z" fill="url(#eXeiF8t3Qbr35-fill)"/><path d="M44.11,87.36c-3.55,16.21-.54,30.29,8.94,35.28c13.27,6.99,34.08-6.49,46.5-30.07c2.97-5.66,5.17-11.37,6.66-16.89-1.38.75-2.72,1.58-4.14,2.23-16.87,7.96-39.09,13.06-57.96,9.45Z" fill="url(#eXeiF8t3Qbr36-fill)"/><path d="M51.52,67.28c-12.42,23.6-11.73,48.39,1.54,55.36.75.4,1.53.72,2.33.98-11.18-8.42-11.16-31.74.57-54.01c11.71-22.26,30.92-35.49,44.18-31.04-.66-.52-1.37-.97-2.12-1.37-13.27-6.98-34.08,6.49-46.5,30.08Z" fill="#ed8203"/><path d="M57.11,47.29c-4.29,4.93-8.21,10.56-11.53,16.86-15.55,29.56-12.45,61.8,6.96,72.02c0,0-21.09-13.24-13.45-49.07c3.25-15.33,9.98-27.2,18.02-39.81Z" fill="#f9af19"/><g><path d="M94.5,93.97l-.53-5c-.02-.21-.2-.35-.45-.34l-7.68.28c-.41.01-.81.41-.77.76l.57,4.99c.02.21.2.35.45.34l7.64-.28c.42-.01.81-.4.77-.75" fill="#d67003"/><path d="M79.14,82.54c-4.94.53-7.87-3.05-6.18-7.56c1.33-3.55,5.25-6.52,9.13-6.94c4.94-.53,7.87,3.05,6.18,7.55-1.33,3.56-5.25,6.53-9.13,6.95m14.34,1.69l-2.52-23.9c-.54-5.14-8.48-4.85-12.05.44L54.96,96.13l9.08-.33l4.39-6.55c.33-.49.92-.83,1.48-.86l20.07-.73c1.86-.06,3.66-1.83,3.5-3.43" fill="#d67003"/><path d="M78.75,79.44l-2.63-3.21c-.27-.33-.11-.88.36-1.23l4.58-3.48c.47-.35,1.06-.37,1.33-.05l2.63,3.21c.27.33.1.88-.36,1.23l-4.58,3.48c-.47.36-1.06.38-1.33.05" fill="#d67003"/><path d="M94.5,93.97l-.53-4.99c-.02-.22-.81-1.77-1.06-1.76l-.21-.06-6.86,1.76c-.41.01-.81.41-.77.76l-.27,3.54.84,1.45c.03.21.2.35.45.34l7.64-.28c.42-.02.81-.41.77-.76" fill="#d67003"/><path d="M79.14,82.54c-4.94.53-7.87-3.05-6.18-7.56c1.33-3.55,5.25-6.52,9.14-6.94c4.94-.53,7.87,3.05,6.18,7.55-1.34,3.56-5.26,6.53-9.14,6.95m14.34,1.68l-2.52-23.9c-.54-5.13-8.48-4.85-12.05.44L54.04,94.64l.92,1.49l9.08-.33l4.39-6.55c.33-.49.92-.84,1.48-.86l20.07-.73c1.86-.06,3.66-1.83,3.5-3.44" fill="#d67003"/><path d="M78.75,79.44l-2.63-3.21c-.27-.33-.11-.88.36-1.23l4.58-3.48c.46-.35,1.06-.37,1.33-.05l2.63,3.22c.27.33.1.88-.36,1.23l-4.58,3.47c-.47.36-1.06.38-1.33.05" fill="#d67003"/><g><path d="M78.23,81c-4.94.53-7.87-3.05-6.18-7.56c1.33-3.55,5.25-6.52,9.13-6.94c4.94-.53,7.87,3.05,6.18,7.55-1.32,3.55-5.24,6.53-9.13,6.95m14.34,1.68l-2.52-23.9c-.54-5.14-8.48-4.85-12.05.44L54.06,94.59l9.08-.33l4.39-6.55c.33-.49.92-.83,1.48-.86l20.07-.73c1.86-.06,3.66-1.83,3.49-3.44" fill="#ffee52"/><path d="M77.85,77.9l-2.63-3.21c-.27-.33-.11-.88.36-1.23l4.58-3.48c.47-.35,1.06-.37,1.33-.05l2.63,3.21c.27.33.1.88-.36,1.23l-4.58,3.48c-.47.36-1.07.38-1.33.05" fill="#ffee52"/><path d="M93.6,92.43l-.53-4.99c-.02-.22-.2-.35-.45-.34l-7.68.28c-.41.01-.81.41-.77.76l.57,4.99c.03.21.2.35.45.34l7.64-.28c.41-.02.81-.41.77-.76" fill="#ffee52"/></g></g></g></g></g><g transform="translate(.000001 0)"><g id="eXeiF8t3Qbr51" transform="matrix(-.560585-.012867 0.012867-.560585 488.011676 14.663935)"><g transform="translate(0 0.000001)"><g><path d="M345.11,117.98c0,0,3.32,17.45-1.04,31.03-5.34,16.6-21.38,37.73-36.67,45.46-56.84,28.71-85.78,1.27-85.78,1.27.72,1.79,7.52,11.92,8.57,13.6c14.08,22.37,53.16,23.11,87.24,1.64c34.11-21.46,50.33-57.02,36.25-79.39-.99-1.58-7.37-12.27-8.57-13.61Z" fill="#ed8203"/><g><path d="M237.93,204.32c-2.69-.86-4.91-1.82-6.91-2.79c2.61,4.38,4.79,9.02,7.59,13.35c1.18,1.81,2.3,3.67,3.46,5.51c2.58,1.47,5.36,2.72,8.36,3.64-.64-1.06-1.28-2.16-1.97-3.22-3.6-5.48-7.57-10.64-10.53-16.49Z" fill="#c66802"/><path d="M292.92,200.73c3.53,5.85,6.95,11.8,10.4,17.71c2.3-1.02,4.6-2.1,6.89-3.32-3.78-5.59-8.41-10.7-11.7-16.54-1.94.83-3.75,1.43-5.59,2.15Z" fill="#c66802"/><path d="M258.19,207.34c2.94,4.64,5.8,9.37,8.58,14.09.98,1.64,1.85,3.32,2.75,5.03c2.14-.06,4.3-.18,6.52-.42-4.11-6.25-8.17-12.5-12.1-18.86-2,.15-3.9.18-5.75.16Z" fill="#c66802"/><path d="M245.32,206.09c2.92,5.57,7.15,10.33,10.43,15.79.75,1.25,1.46,2.56,2.17,3.87c1.53.23,3.09.44,4.68.54-3.62-6.49-7.02-13.2-10.98-19.3-2.23-.21-4.32-.54-6.3-.9Z" fill="#c66802"/><path d="M269.91,206.59c3.91,6.23,7.9,12.43,11.97,18.57c1.62-.31,3.28-.64,4.94-1.07-4.19-5.84-8.18-11.83-11.18-18.42-1.98.39-3.88.68-5.73.92Z" fill="#c66802"/><path d="M280.95,204.51c3.02,6.46,7.07,12.33,11.28,18.09c2.04-.62,4.06-1.31,6.09-2.09-3.48-6-6.93-12.04-10.56-17.95-2.33.76-4.6,1.37-6.81,1.95Z" fill="#c66802"/><path d="M307.4,194.46c-1.37.71-2.72,1.33-4.08,1.97c3.1,5.71,7.55,10.74,11.33,16.16.93-.55,1.87-1.04,2.78-1.63c1.14-.71,2.19-1.48,3.29-2.21-3.28-5.46-6.37-11.04-10.13-16.23-1.08.67-2.13,1.4-3.19,1.94Z" fill="#c66802"/><path d="M335.56,166.38c-1.25,1.94-2.56,3.85-3.94,5.73c3.61,5.6,7.33,11.15,11.06,16.67c1.45-1.76,2.79-3.56,4.04-5.37-.56-.93-1.12-1.86-1.73-2.77-3.19-4.7-6.32-9.49-9.43-14.26Z" fill="#c66802"/><path d="M341.59,155.32c-.9,1.97-1.9,3.94-2.99,5.93c3.6,5.55,7.34,11,10.93,16.56.13.23.27.46.4.67c1.1-1.84,2.06-3.69,2.96-5.56-1.03-1.8-2.05-3.59-3.16-5.4-2.56-4.17-5.46-8.13-8.14-12.2Z" fill="#c66802"/><path d="M345.75,141.27c-.35,2.63-.89,5.25-1.67,7.74-.01.04-.03.07-.04.09c2.81,4.61,6.11,8.87,8.94,13.49.88,1.4,1.68,2.85,2.49,4.29.88-2.39,1.52-4.78,2.06-7.15-2.25-3.69-4.44-7.42-6.88-10.94-1.73-2.49-3.37-4.99-4.9-7.52Z" fill="#c66802"/><path d="M345.84,123.56c.2,1.92.37,4.22.45,6.73c2.55,6.58,6.59,12.26,10.57,18.1.61.89,1.17,1.82,1.75,2.72.09-3.25-.21-6.42-.89-9.47-4.11-5.93-8.25-11.92-11.88-18.08Z" fill="#c66802"/><path d="M323.72,181.56c3.58,5.34,7.39,10.54,11.06,15.81c1.49-1.43,2.92-2.9,4.26-4.37-3.68-5.45-7.3-10.94-10.9-16.44-1.44,1.71-2.89,3.4-4.42,5Z" fill="#c66802"/><path d="M314.99,189.51c3.74,5.14,6.76,10.73,9.99,16.19c2.03-1.52,3.94-3.09,5.8-4.71-3.61-5.22-7.36-10.35-10.92-15.61-1.61,1.49-3.24,2.87-4.87,4.13Z" fill="#c66802"/></g><path d="M344.07,149.01c-3.16,9.82-10.1,21.19-18.37,30.44c3.66,5.41,7.2,10.9,10.62,16.46c12.14-12.19,19.77-26.2,21.76-39.26-4.08-6.42-8.05-12.94-11.99-19.35-.23,3.9-.82,7.92-2.02,11.71Z" opacity="0.32" fill="#7a4103"/><path d="M257.85,116.34c-34.09,21.46-50.31,57.02-36.24,79.39c14.09,22.37,53.16,23.09,87.24,1.64c34.11-21.48,50.34-57.02,36.25-79.39-14.08-22.37-53.15-23.11-87.25-1.64Z" fill="#fcd517"/><path d="M271.45,109.15c19.19,5.98,38.21,13.5,55.91,22.57c7.65,3.92,14.88,8.45,21.89,13.26c1.93-9.84.76-19.22-4.15-27.01-12.23-19.43-43.34-22.42-73.65-8.82Z" fill="#ffbc00"/><path d="M257.85,116.34c-2.68,1.68-5.21,3.49-7.67,5.35c13.5.79,26.95,2.03,40.14,4.41-9.62-3.94-19.25-7.76-28.77-11.92-1.24.72-2.47,1.38-3.7,2.16Z" fill="#ffbc00"/><path d="M268,154.97c-10.82-5.04-23.26-11.63-31.37-21.12-18.88,20.25-25.73,44.87-15.01,61.89c14.09,22.37,53.16,23.09,87.24,1.64c14.33-9.01,25.44-20.5,32.52-32.45-2.21.22-4.41.45-6.63.61-22.6,1.43-46.01-.94-66.75-10.57Z" opacity="0.54" fill="#fff7ab"/><path d="M268,154.97c-10.82-5.04-23.26-11.63-31.37-21.12-2.99,3.2-5.55,6.53-7.91,9.9c17.57,25.05,49.44,32.11,80.08,29.85c10.12-.74,19.98-2.47,29.8-4.39.98-1.43,1.93-2.86,2.78-4.3-2.21.22-4.41.45-6.63.61-22.6,1.45-46.01-.92-66.75-10.55Z" opacity="0.54" fill="#fff7ab"/><g><path d="M309.16,192.47c-49.82,28.39-76.68,12.86-83.92,7.9c16.34,17.68,52.09,16.86,83.62-3c25.79-16.23,41.32-40.48,41.3-61.02-2.22,19.38-16.62,42.2-41,56.12Z" fill="#ffffd7"/></g><path d="M262.15,123.18c-27.2,17.14-41.45,43.45-31.83,58.75c9.64,15.31,39.53,13.82,66.73-3.32c27.22-17.14,41.47-43.44,31.84-58.75-9.62-15.28-39.52-13.82-66.74,3.32Z" fill="url(#eXeiF8t3Qbr77-fill)"/><path d="M242.29,139.67c-13.49,14.81-18.83,31.34-11.96,42.25c9.64,15.31,39.53,13.82,66.73-3.32c6.52-4.11,12.27-8.74,17.15-13.62-1.89-.05-3.78.01-5.68-.14-22.41-1.9-48.7-9.99-66.24-25.17Z" fill="url(#eXeiF8t3Qbr78-fill)"/><path d="M262.15,123.18c-27.2,17.14-41.45,43.45-31.83,58.75.55.87,1.16,1.67,1.86,2.44-6.6-15.54,7.51-39.88,33.2-56.05c25.68-16.18,53.74-18.39,64.9-5.72-.39-.94-.84-1.84-1.4-2.73-9.61-15.29-39.51-13.83-66.73,3.31Z" fill="#ed8203"/><path d="M221.62,195.73c0,0-14.01-26.55,15.59-59.37c12.66-14.01,26.85-22.36,42.86-30.67-7.43,2.56-14.93,6.08-22.21,10.66-34.1,21.46-50.32,57.01-36.24,79.38Z" fill="#f9af19"/><g><path d="M282.29,181.77l3.83-5.59c.17-.24.14-.53-.06-.73l-6.27-6.21c-.34-.33-.99-.27-1.26.13l-3.8,5.62c-.16.24-.13.53.07.73l6.23,6.17c.35.35.99.28,1.26-.12" fill="#d67003"/><path d="M279.94,157.02c-4.33-3.63-3.59-9.79,1.57-13c4.06-2.53,9.66-2.28,13.06.58c4.33,3.63,3.59,9.78-1.57,13-4.05,2.52-9.65,2.28-13.06-.58m9.83,13.86l18.33-26.74c3.94-5.75-2.53-12.16-9.83-9.74l-48.85,16.18l7.41,7.33l9.01-3.03c.68-.23,1.43-.08,1.89.37l16.37,16.22c1.51,1.5,4.43,1.2,5.67-.59" fill="#d67003"/><path d="M282.27,153.51l.67-5.53c.07-.56.67-1,1.33-.97l6.55.29c.67.03,1.15.51,1.08,1.07l-.67,5.53c-.07.56-.67,1-1.33.97l-6.55-.29c-.66-.03-1.15-.51-1.08-1.07" fill="#d67003"/><path d="M282.29,181.77l3.83-5.59c.17-.24.87-2.51.67-2.71l-.11-.24-6.88-3.99c-.34-.33-.99-.26-1.26.13l-3.22,3.42-.57,2.2c-.16.24-.13.53.07.73l6.23,6.17c.33.35.97.28,1.24-.12" fill="#d67003"/><path d="M279.94,157.02c-4.33-3.63-3.59-9.78,1.57-13c4.06-2.53,9.66-2.28,13.06.58c4.33,3.63,3.59,9.78-1.57,13-4.05,2.52-9.65,2.28-13.06-.58m9.83,13.86l18.33-26.74c3.94-5.74-2.54-12.16-9.83-9.74l-48.31,13.87-.54,2.32l7.4,7.33l9.01-3.03c.68-.23,1.43-.08,1.89.37l16.37,16.22c1.52,1.49,4.44,1.19,5.68-.6" fill="#d67003"/><path d="M282.27,153.51l.67-5.53c.07-.56.67-1,1.33-.97l6.55.29c.66.03,1.15.51,1.08,1.07l-.67,5.53c-.07.56-.67,1-1.33.97l-6.54-.29c-.67-.03-1.16-.51-1.09-1.07" fill="#d67003"/><g><path d="M280.54,154.67c-4.33-3.63-3.59-9.79,1.57-13c4.06-2.53,9.66-2.28,13.06.58c4.33,3.63,3.59,9.78-1.57,13-4.05,2.52-9.65,2.28-13.06-.58m9.83,13.85l18.33-26.74c3.94-5.75-2.53-12.16-9.83-9.74l-48.85,16.18l7.41,7.33l9.01-3.03c.68-.23,1.43-.08,1.89.37l16.37,16.22c1.52,1.51,4.44,1.21,5.67-.59" fill="#ffee52"/><path d="M282.87,151.16l.67-5.53c.07-.56.67-1,1.33-.97l6.55.29c.67.03,1.15.51,1.08,1.07l-.67,5.53c-.07.56-.67,1-1.33.97l-6.55-.29c-.66-.03-1.15-.51-1.08-1.07" fill="#ffee52"/><path d="M282.89,179.42l3.83-5.59c.17-.24.14-.53-.06-.73l-6.27-6.21c-.34-.33-.99-.26-1.26.13l-3.8,5.62c-.16.24-.13.53.07.73l6.23,6.17c.35.35.99.28,1.26-.12" fill="#ffee52"/></g></g></g></g></g></g><g transform="translate(.000001 0)"><g id="eXeiF8t3Qbr93" transform="matrix(.294014 0.341045-.341045 0.294014 1.59518-182.538658)"><g transform="translate(0 0.000001)"><g><path d="M345.11,117.98c0,0,3.32,17.45-1.04,31.03-5.34,16.6-21.38,37.73-36.67,45.46-56.84,28.71-85.78,1.27-85.78,1.27.72,1.79,7.52,11.92,8.57,13.6c14.08,22.37,53.16,23.11,87.24,1.64c34.11-21.46,50.33-57.02,36.25-79.39-.99-1.58-7.37-12.27-8.57-13.61Z" fill="#ed8203"/><g><path d="M237.93,204.32c-2.69-.86-4.91-1.82-6.91-2.79c2.61,4.38,4.79,9.02,7.59,13.35c1.18,1.81,2.3,3.67,3.46,5.51c2.58,1.47,5.36,2.72,8.36,3.64-.64-1.06-1.28-2.16-1.97-3.22-3.6-5.48-7.57-10.64-10.53-16.49Z" fill="#c66802"/><path d="M292.92,200.73c3.53,5.85,6.95,11.8,10.4,17.71c2.3-1.02,4.6-2.1,6.89-3.32-3.78-5.59-8.41-10.7-11.7-16.54-1.94.83-3.75,1.43-5.59,2.15Z" fill="#c66802"/><path d="M258.19,207.34c2.94,4.64,5.8,9.37,8.58,14.09.98,1.64,1.85,3.32,2.75,5.03c2.14-.06,4.3-.18,6.52-.42-4.11-6.25-8.17-12.5-12.1-18.86-2,.15-3.9.18-5.75.16Z" fill="#c66802"/><path d="M245.32,206.09c2.92,5.57,7.15,10.33,10.43,15.79.75,1.25,1.46,2.56,2.17,3.87c1.53.23,3.09.44,4.68.54-3.62-6.49-7.02-13.2-10.98-19.3-2.23-.21-4.32-.54-6.3-.9Z" fill="#c66802"/><path d="M269.91,206.59c3.91,6.23,7.9,12.43,11.97,18.57c1.62-.31,3.28-.64,4.94-1.07-4.19-5.84-8.18-11.83-11.18-18.42-1.98.39-3.88.68-5.73.92Z" fill="#c66802"/><path d="M280.95,204.51c3.02,6.46,7.07,12.33,11.28,18.09c2.04-.62,4.06-1.31,6.09-2.09-3.48-6-6.93-12.04-10.56-17.95-2.33.76-4.6,1.37-6.81,1.95Z" fill="#c66802"/><path d="M307.4,194.46c-1.37.71-2.72,1.33-4.08,1.97c3.1,5.71,7.55,10.74,11.33,16.16.93-.55,1.87-1.04,2.78-1.63c1.14-.71,2.19-1.48,3.29-2.21-3.28-5.46-6.37-11.04-10.13-16.23-1.08.67-2.13,1.4-3.19,1.94Z" fill="#c66802"/><path d="M335.56,166.38c-1.25,1.94-2.56,3.85-3.94,5.73c3.61,5.6,7.33,11.15,11.06,16.67c1.45-1.76,2.79-3.56,4.04-5.37-.56-.93-1.12-1.86-1.73-2.77-3.19-4.7-6.32-9.49-9.43-14.26Z" fill="#c66802"/><path d="M341.59,155.32c-.9,1.97-1.9,3.94-2.99,5.93c3.6,5.55,7.34,11,10.93,16.56.13.23.27.46.4.67c1.1-1.84,2.06-3.69,2.96-5.56-1.03-1.8-2.05-3.59-3.16-5.4-2.56-4.17-5.46-8.13-8.14-12.2Z" fill="#c66802"/><path d="M345.75,141.27c-.35,2.63-.89,5.25-1.67,7.74-.01.04-.03.07-.04.09c2.81,4.61,6.11,8.87,8.94,13.49.88,1.4,1.68,2.85,2.49,4.29.88-2.39,1.52-4.78,2.06-7.15-2.25-3.69-4.44-7.42-6.88-10.94-1.73-2.49-3.37-4.99-4.9-7.52Z" fill="#c66802"/><path d="M345.84,123.56c.2,1.92.37,4.22.45,6.73c2.55,6.58,6.59,12.26,10.57,18.1.61.89,1.17,1.82,1.75,2.72.09-3.25-.21-6.42-.89-9.47-4.11-5.93-8.25-11.92-11.88-18.08Z" fill="#c66802"/><path d="M323.72,181.56c3.58,5.34,7.39,10.54,11.06,15.81c1.49-1.43,2.92-2.9,4.26-4.37-3.68-5.45-7.3-10.94-10.9-16.44-1.44,1.71-2.89,3.4-4.42,5Z" fill="#c66802"/><path d="M314.99,189.51c3.74,5.14,6.76,10.73,9.99,16.19c2.03-1.52,3.94-3.09,5.8-4.71-3.61-5.22-7.36-10.35-10.92-15.61-1.61,1.49-3.24,2.87-4.87,4.13Z" fill="#c66802"/></g><path d="M344.07,149.01c-3.16,9.82-10.1,21.19-18.37,30.44c3.66,5.41,7.2,10.9,10.62,16.46c12.14-12.19,19.77-26.2,21.76-39.26-4.08-6.42-8.05-12.94-11.99-19.35-.23,3.9-.82,7.92-2.02,11.71Z" opacity="0.32" fill="#7a4103"/><path d="M257.85,116.34c-34.09,21.46-50.31,57.02-36.24,79.39c14.09,22.37,53.16,23.09,87.24,1.64c34.11-21.48,50.34-57.02,36.25-79.39-14.08-22.37-53.15-23.11-87.25-1.64Z" fill="#fcd517"/><path d="M271.45,109.15c19.19,5.98,38.21,13.5,55.91,22.57c7.65,3.92,14.88,8.45,21.89,13.26c1.93-9.84.76-19.22-4.15-27.01-12.23-19.43-43.34-22.42-73.65-8.82Z" fill="#ffbc00"/><path d="M257.85,116.34c-2.68,1.68-5.21,3.49-7.67,5.35c13.5.79,26.95,2.03,40.14,4.41-9.62-3.94-19.25-7.76-28.77-11.92-1.24.72-2.47,1.38-3.7,2.16Z" fill="#ffbc00"/><path d="M268,154.97c-10.82-5.04-23.26-11.63-31.37-21.12-18.88,20.25-25.73,44.87-15.01,61.89c14.09,22.37,53.16,23.09,87.24,1.64c14.33-9.01,25.44-20.5,32.52-32.45-2.21.22-4.41.45-6.63.61-22.6,1.43-46.01-.94-66.75-10.57Z" opacity="0.54" fill="#fff7ab"/><path d="M268,154.97c-10.82-5.04-23.26-11.63-31.37-21.12-2.99,3.2-5.55,6.53-7.91,9.9c17.57,25.05,49.44,32.11,80.08,29.85c10.12-.74,19.98-2.47,29.8-4.39.98-1.43,1.93-2.86,2.78-4.3-2.21.22-4.41.45-6.63.61-22.6,1.45-46.01-.92-66.75-10.55Z" opacity="0.54" fill="#fff7ab"/><g><path d="M309.16,192.47c-49.82,28.39-76.68,12.86-83.92,7.9c16.34,17.68,52.09,16.86,83.62-3c25.79-16.23,41.32-40.48,41.3-61.02-2.22,19.38-16.62,42.2-41,56.12Z" fill="#ffffd7"/></g><path d="M262.15,123.18c-27.2,17.14-41.45,43.45-31.83,58.75c9.64,15.31,39.53,13.82,66.73-3.32c27.22-17.14,41.47-43.44,31.84-58.75-9.62-15.28-39.52-13.82-66.74,3.32Z" fill="url(#eXeiF8t3Qbr119-fill)"/><path d="M242.29,139.67c-13.49,14.81-18.83,31.34-11.96,42.25c9.64,15.31,39.53,13.82,66.73-3.32c6.52-4.11,12.27-8.74,17.15-13.62-1.89-.05-3.78.01-5.68-.14-22.41-1.9-48.7-9.99-66.24-25.17Z" fill="url(#eXeiF8t3Qbr120-fill)"/><path d="M262.15,123.18c-27.2,17.14-41.45,43.45-31.83,58.75.55.87,1.16,1.67,1.86,2.44-6.6-15.54,7.51-39.88,33.2-56.05c25.68-16.18,53.74-18.39,64.9-5.72-.39-.94-.84-1.84-1.4-2.73-9.61-15.29-39.51-13.83-66.73,3.31Z" fill="#ed8203"/><path d="M221.62,195.73c0,0-14.01-26.55,15.59-59.37c12.66-14.01,26.85-22.36,42.86-30.67-7.43,2.56-14.93,6.08-22.21,10.66-34.1,21.46-50.32,57.01-36.24,79.38Z" fill="#f9af19"/><g><path d="M282.29,181.77l3.83-5.59c.17-.24.14-.53-.06-.73l-6.27-6.21c-.34-.33-.99-.27-1.26.13l-3.8,5.62c-.16.24-.13.53.07.73l6.23,6.17c.35.35.99.28,1.26-.12" fill="#d67003"/><path d="M279.94,157.02c-4.33-3.63-3.59-9.79,1.57-13c4.06-2.53,9.66-2.28,13.06.58c4.33,3.63,3.59,9.78-1.57,13-4.05,2.52-9.65,2.28-13.06-.58m9.83,13.86l18.33-26.74c3.94-5.75-2.53-12.16-9.83-9.74l-48.85,16.18l7.41,7.33l9.01-3.03c.68-.23,1.43-.08,1.89.37l16.37,16.22c1.51,1.5,4.43,1.2,5.67-.59" fill="#d67003"/><path d="M282.27,153.51l.67-5.53c.07-.56.67-1,1.33-.97l6.55.29c.67.03,1.15.51,1.08,1.07l-.67,5.53c-.07.56-.67,1-1.33.97l-6.55-.29c-.66-.03-1.15-.51-1.08-1.07" fill="#d67003"/><path d="M282.29,181.77l3.83-5.59c.17-.24.87-2.51.67-2.71l-.11-.24-6.88-3.99c-.34-.33-.99-.26-1.26.13l-3.22,3.42-.57,2.2c-.16.24-.13.53.07.73l6.23,6.17c.33.35.97.28,1.24-.12" fill="#d67003"/><path d="M279.94,157.02c-4.33-3.63-3.59-9.78,1.57-13c4.06-2.53,9.66-2.28,13.06.58c4.33,3.63,3.59,9.78-1.57,13-4.05,2.52-9.65,2.28-13.06-.58m9.83,13.86l18.33-26.74c3.94-5.74-2.54-12.16-9.83-9.74l-48.31,13.87-.54,2.32l7.4,7.33l9.01-3.03c.68-.23,1.43-.08,1.89.37l16.37,16.22c1.52,1.49,4.44,1.19,5.68-.6" fill="#d67003"/><path d="M282.27,153.51l.67-5.53c.07-.56.67-1,1.33-.97l6.55.29c.66.03,1.15.51,1.08,1.07l-.67,5.53c-.07.56-.67,1-1.33.97l-6.54-.29c-.67-.03-1.16-.51-1.09-1.07" fill="#d67003"/><g><path d="M280.54,154.67c-4.33-3.63-3.59-9.79,1.57-13c4.06-2.53,9.66-2.28,13.06.58c4.33,3.63,3.59,9.78-1.57,13-4.05,2.52-9.65,2.28-13.06-.58m9.83,13.85l18.33-26.74c3.94-5.75-2.53-12.16-9.83-9.74l-48.85,16.18l7.41,7.33l9.01-3.03c.68-.23,1.43-.08,1.89.37l16.37,16.22c1.52,1.51,4.44,1.21,5.67-.59" fill="#ffee52"/><path d="M282.87,151.16l.67-5.53c.07-.56.67-1,1.33-.97l6.55.29c.67.03,1.15.51,1.08,1.07l-.67,5.53c-.07.56-.67,1-1.33.97l-6.55-.29c-.66-.03-1.15-.51-1.08-1.07" fill="#ffee52"/><path d="M282.89,179.42l3.83-5.59c.17-.24.14-.53-.06-.73l-6.27-6.21c-.34-.33-.99-.26-1.26.13l-3.8,5.62c-.16.24-.13.53.07.73l6.23,6.17c.35.35.99.28,1.26-.12" fill="#ffee52"/></g></g></g></g></g></g><g transform="translate(.000001 0)"><g id="eXeiF8t3Qbr135" transform="matrix(-.143251-.513718 0.513718-.143251 185.226708 99.278521)"><g transform="translate(0 0.000001)"><g><path d="M345.11,117.98c0,0,3.32,17.45-1.04,31.03-5.34,16.6-21.38,37.73-36.67,45.46-56.84,28.71-85.78,1.27-85.78,1.27.72,1.79,7.52,11.92,8.57,13.6c14.08,22.37,53.16,23.11,87.24,1.64c34.11-21.46,50.33-57.02,36.25-79.39-.99-1.58-7.37-12.27-8.57-13.61Z" fill="#ed8203"/><g><path d="M237.93,204.32c-2.69-.86-4.91-1.82-6.91-2.79c2.61,4.38,4.79,9.02,7.59,13.35c1.18,1.81,2.3,3.67,3.46,5.51c2.58,1.47,5.36,2.72,8.36,3.64-.64-1.06-1.28-2.16-1.97-3.22-3.6-5.48-7.57-10.64-10.53-16.49Z" fill="#c66802"/><path d="M292.92,200.73c3.53,5.85,6.95,11.8,10.4,17.71c2.3-1.02,4.6-2.1,6.89-3.32-3.78-5.59-8.41-10.7-11.7-16.54-1.94.83-3.75,1.43-5.59,2.15Z" fill="#c66802"/><path d="M258.19,207.34c2.94,4.64,5.8,9.37,8.58,14.09.98,1.64,1.85,3.32,2.75,5.03c2.14-.06,4.3-.18,6.52-.42-4.11-6.25-8.17-12.5-12.1-18.86-2,.15-3.9.18-5.75.16Z" fill="#c66802"/><path d="M245.32,206.09c2.92,5.57,7.15,10.33,10.43,15.79.75,1.25,1.46,2.56,2.17,3.87c1.53.23,3.09.44,4.68.54-3.62-6.49-7.02-13.2-10.98-19.3-2.23-.21-4.32-.54-6.3-.9Z" fill="#c66802"/><path d="M269.91,206.59c3.91,6.23,7.9,12.43,11.97,18.57c1.62-.31,3.28-.64,4.94-1.07-4.19-5.84-8.18-11.83-11.18-18.42-1.98.39-3.88.68-5.73.92Z" fill="#c66802"/><path d="M280.95,204.51c3.02,6.46,7.07,12.33,11.28,18.09c2.04-.62,4.06-1.31,6.09-2.09-3.48-6-6.93-12.04-10.56-17.95-2.33.76-4.6,1.37-6.81,1.95Z" fill="#c66802"/><path d="M307.4,194.46c-1.37.71-2.72,1.33-4.08,1.97c3.1,5.71,7.55,10.74,11.33,16.16.93-.55,1.87-1.04,2.78-1.63c1.14-.71,2.19-1.48,3.29-2.21-3.28-5.46-6.37-11.04-10.13-16.23-1.08.67-2.13,1.4-3.19,1.94Z" fill="#c66802"/><path d="M335.56,166.38c-1.25,1.94-2.56,3.85-3.94,5.73c3.61,5.6,7.33,11.15,11.06,16.67c1.45-1.76,2.79-3.56,4.04-5.37-.56-.93-1.12-1.86-1.73-2.77-3.19-4.7-6.32-9.49-9.43-14.26Z" fill="#c66802"/><path d="M341.59,155.32c-.9,1.97-1.9,3.94-2.99,5.93c3.6,5.55,7.34,11,10.93,16.56.13.23.27.46.4.67c1.1-1.84,2.06-3.69,2.96-5.56-1.03-1.8-2.05-3.59-3.16-5.4-2.56-4.17-5.46-8.13-8.14-12.2Z" fill="#c66802"/><path d="M345.75,141.27c-.35,2.63-.89,5.25-1.67,7.74-.01.04-.03.07-.04.09c2.81,4.61,6.11,8.87,8.94,13.49.88,1.4,1.68,2.85,2.49,4.29.88-2.39,1.52-4.78,2.06-7.15-2.25-3.69-4.44-7.42-6.88-10.94-1.73-2.49-3.37-4.99-4.9-7.52Z" fill="#c66802"/><path d="M345.84,123.56c.2,1.92.37,4.22.45,6.73c2.55,6.58,6.59,12.26,10.57,18.1.61.89,1.17,1.82,1.75,2.72.09-3.25-.21-6.42-.89-9.47-4.11-5.93-8.25-11.92-11.88-18.08Z" fill="#c66802"/><path d="M323.72,181.56c3.58,5.34,7.39,10.54,11.06,15.81c1.49-1.43,2.92-2.9,4.26-4.37-3.68-5.45-7.3-10.94-10.9-16.44-1.44,1.71-2.89,3.4-4.42,5Z" fill="#c66802"/><path d="M314.99,189.51c3.74,5.14,6.76,10.73,9.99,16.19c2.03-1.52,3.94-3.09,5.8-4.71-3.61-5.22-7.36-10.35-10.92-15.61-1.61,1.49-3.24,2.87-4.87,4.13Z" fill="#c66802"/></g><path d="M344.07,149.01c-3.16,9.82-10.1,21.19-18.37,30.44c3.66,5.41,7.2,10.9,10.62,16.46c12.14-12.19,19.77-26.2,21.76-39.26-4.08-6.42-8.05-12.94-11.99-19.35-.23,3.9-.82,7.92-2.02,11.71Z" opacity="0.32" fill="#7a4103"/><path d="M257.85,116.34c-34.09,21.46-50.31,57.02-36.24,79.39c14.09,22.37,53.16,23.09,87.24,1.64c34.11-21.48,50.34-57.02,36.25-79.39-14.08-22.37-53.15-23.11-87.25-1.64Z" fill="#fcd517"/><path d="M271.45,109.15c19.19,5.98,38.21,13.5,55.91,22.57c7.65,3.92,14.88,8.45,21.89,13.26c1.93-9.84.76-19.22-4.15-27.01-12.23-19.43-43.34-22.42-73.65-8.82Z" fill="#ffbc00"/><path d="M257.85,116.34c-2.68,1.68-5.21,3.49-7.67,5.35c13.5.79,26.95,2.03,40.14,4.41-9.62-3.94-19.25-7.76-28.77-11.92-1.24.72-2.47,1.38-3.7,2.16Z" fill="#ffbc00"/><path d="M268,154.97c-10.82-5.04-23.26-11.63-31.37-21.12-18.88,20.25-25.73,44.87-15.01,61.89c14.09,22.37,53.16,23.09,87.24,1.64c14.33-9.01,25.44-20.5,32.52-32.45-2.21.22-4.41.45-6.63.61-22.6,1.43-46.01-.94-66.75-10.57Z" opacity="0.54" fill="#fff7ab"/><path d="M268,154.97c-10.82-5.04-23.26-11.63-31.37-21.12-2.99,3.2-5.55,6.53-7.91,9.9c17.57,25.05,49.44,32.11,80.08,29.85c10.12-.74,19.98-2.47,29.8-4.39.98-1.43,1.93-2.86,2.78-4.3-2.21.22-4.41.45-6.63.61-22.6,1.45-46.01-.92-66.75-10.55Z" opacity="0.54" fill="#fff7ab"/><g><path d="M309.16,192.47c-49.82,28.39-76.68,12.86-83.92,7.9c16.34,17.68,52.09,16.86,83.62-3c25.79-16.23,41.32-40.48,41.3-61.02-2.22,19.38-16.62,42.2-41,56.12Z" fill="#ffffd7"/></g><path d="M262.15,123.18c-27.2,17.14-41.45,43.45-31.83,58.75c9.64,15.31,39.53,13.82,66.73-3.32c27.22-17.14,41.47-43.44,31.84-58.75-9.62-15.28-39.52-13.82-66.74,3.32Z" fill="url(#eXeiF8t3Qbr161-fill)"/><path d="M242.29,139.67c-13.49,14.81-18.83,31.34-11.96,42.25c9.64,15.31,39.53,13.82,66.73-3.32c6.52-4.11,12.27-8.74,17.15-13.62-1.89-.05-3.78.01-5.68-.14-22.41-1.9-48.7-9.99-66.24-25.17Z" fill="url(#eXeiF8t3Qbr162-fill)"/><path d="M262.15,123.18c-27.2,17.14-41.45,43.45-31.83,58.75.55.87,1.16,1.67,1.86,2.44-6.6-15.54,7.51-39.88,33.2-56.05c25.68-16.18,53.74-18.39,64.9-5.72-.39-.94-.84-1.84-1.4-2.73-9.61-15.29-39.51-13.83-66.73,3.31Z" fill="#ed8203"/><path d="M221.62,195.73c0,0-14.01-26.55,15.59-59.37c12.66-14.01,26.85-22.36,42.86-30.67-7.43,2.56-14.93,6.08-22.21,10.66-34.1,21.46-50.32,57.01-36.24,79.38Z" fill="#f9af19"/><g><path d="M282.29,181.77l3.83-5.59c.17-.24.14-.53-.06-.73l-6.27-6.21c-.34-.33-.99-.27-1.26.13l-3.8,5.62c-.16.24-.13.53.07.73l6.23,6.17c.35.35.99.28,1.26-.12" fill="#d67003"/><path d="M279.94,157.02c-4.33-3.63-3.59-9.79,1.57-13c4.06-2.53,9.66-2.28,13.06.58c4.33,3.63,3.59,9.78-1.57,13-4.05,2.52-9.65,2.28-13.06-.58m9.83,13.86l18.33-26.74c3.94-5.75-2.53-12.16-9.83-9.74l-48.85,16.18l7.41,7.33l9.01-3.03c.68-.23,1.43-.08,1.89.37l16.37,16.22c1.51,1.5,4.43,1.2,5.67-.59" fill="#d67003"/><path d="M282.27,153.51l.67-5.53c.07-.56.67-1,1.33-.97l6.55.29c.67.03,1.15.51,1.08,1.07l-.67,5.53c-.07.56-.67,1-1.33.97l-6.55-.29c-.66-.03-1.15-.51-1.08-1.07" fill="#d67003"/><path d="M282.29,181.77l3.83-5.59c.17-.24.87-2.51.67-2.71l-.11-.24-6.88-3.99c-.34-.33-.99-.26-1.26.13l-3.22,3.42-.57,2.2c-.16.24-.13.53.07.73l6.23,6.17c.33.35.97.28,1.24-.12" fill="#d67003"/><path d="M279.94,157.02c-4.33-3.63-3.59-9.78,1.57-13c4.06-2.53,9.66-2.28,13.06.58c4.33,3.63,3.59,9.78-1.57,13-4.05,2.52-9.65,2.28-13.06-.58m9.83,13.86l18.33-26.74c3.94-5.74-2.54-12.16-9.83-9.74l-48.31,13.87-.54,2.32l7.4,7.33l9.01-3.03c.68-.23,1.43-.08,1.89.37l16.37,16.22c1.52,1.49,4.44,1.19,5.68-.6" fill="#d67003"/><path d="M282.27,153.51l.67-5.53c.07-.56.67-1,1.33-.97l6.55.29c.66.03,1.15.51,1.08,1.07l-.67,5.53c-.07.56-.67,1-1.33.97l-6.54-.29c-.67-.03-1.16-.51-1.09-1.07" fill="#d67003"/><g><path d="M280.54,154.67c-4.33-3.63-3.59-9.79,1.57-13c4.06-2.53,9.66-2.28,13.06.58c4.33,3.63,3.59,9.78-1.57,13-4.05,2.52-9.65,2.28-13.06-.58m9.83,13.85l18.33-26.74c3.94-5.75-2.53-12.16-9.83-9.74l-48.85,16.18l7.41,7.33l9.01-3.03c.68-.23,1.43-.08,1.89.37l16.37,16.22c1.52,1.51,4.44,1.21,5.67-.59" fill="#ffee52"/><path d="M282.87,151.16l.67-5.53c.07-.56.67-1,1.33-.97l6.55.29c.67.03,1.15.51,1.08,1.07l-.67,5.53c-.07.56-.67,1-1.33.97l-6.55-.29c-.66-.03-1.15-.51-1.08-1.07" fill="#ffee52"/><path d="M282.89,179.42l3.83-5.59c.17-.24.14-.53-.06-.73l-6.27-6.21c-.34-.33-.99-.26-1.26.13l-3.8,5.62c-.16.24-.13.53.07.73l6.23,6.17c.35.35.99.28,1.26-.12" fill="#ffee52"/></g></g></g></g></g></g><g transform="translate(91.532102-125.482607)"><g id="eXeiF8t3Qbr177" transform="matrix(.160579-.279379 0.279379 0.160579-53.601842 10.160495)"><g transform="translate(0 0.000001)"><g><path d="M345.11,117.98c0,0,3.32,17.45-1.04,31.03-5.34,16.6-21.38,37.73-36.67,45.46-56.84,28.71-85.78,1.27-85.78,1.27.72,1.79,7.52,11.92,8.57,13.6c14.08,22.37,53.16,23.11,87.24,1.64c34.11-21.46,50.33-57.02,36.25-79.39-.99-1.58-7.37-12.27-8.57-13.61Z" fill="#ed8203"/><g><path d="M237.93,204.32c-2.69-.86-4.91-1.82-6.91-2.79c2.61,4.38,4.79,9.02,7.59,13.35c1.18,1.81,2.3,3.67,3.46,5.51c2.58,1.47,5.36,2.72,8.36,3.64-.64-1.06-1.28-2.16-1.97-3.22-3.6-5.48-7.57-10.64-10.53-16.49Z" fill="#c66802"/><path d="M292.92,200.73c3.53,5.85,6.95,11.8,10.4,17.71c2.3-1.02,4.6-2.1,6.89-3.32-3.78-5.59-8.41-10.7-11.7-16.54-1.94.83-3.75,1.43-5.59,2.15Z" fill="#c66802"/><path d="M258.19,207.34c2.94,4.64,5.8,9.37,8.58,14.09.98,1.64,1.85,3.32,2.75,5.03c2.14-.06,4.3-.18,6.52-.42-4.11-6.25-8.17-12.5-12.1-18.86-2,.15-3.9.18-5.75.16Z" fill="#c66802"/><path d="M245.32,206.09c2.92,5.57,7.15,10.33,10.43,15.79.75,1.25,1.46,2.56,2.17,3.87c1.53.23,3.09.44,4.68.54-3.62-6.49-7.02-13.2-10.98-19.3-2.23-.21-4.32-.54-6.3-.9Z" fill="#c66802"/><path d="M269.91,206.59c3.91,6.23,7.9,12.43,11.97,18.57c1.62-.31,3.28-.64,4.94-1.07-4.19-5.84-8.18-11.83-11.18-18.42-1.98.39-3.88.68-5.73.92Z" fill="#c66802"/><path d="M280.95,204.51c3.02,6.46,7.07,12.33,11.28,18.09c2.04-.62,4.06-1.31,6.09-2.09-3.48-6-6.93-12.04-10.56-17.95-2.33.76-4.6,1.37-6.81,1.95Z" fill="#c66802"/><path d="M307.4,194.46c-1.37.71-2.72,1.33-4.08,1.97c3.1,5.71,7.55,10.74,11.33,16.16.93-.55,1.87-1.04,2.78-1.63c1.14-.71,2.19-1.48,3.29-2.21-3.28-5.46-6.37-11.04-10.13-16.23-1.08.67-2.13,1.4-3.19,1.94Z" fill="#c66802"/><path d="M335.56,166.38c-1.25,1.94-2.56,3.85-3.94,5.73c3.61,5.6,7.33,11.15,11.06,16.67c1.45-1.76,2.79-3.56,4.04-5.37-.56-.93-1.12-1.86-1.73-2.77-3.19-4.7-6.32-9.49-9.43-14.26Z" fill="#c66802"/><path d="M341.59,155.32c-.9,1.97-1.9,3.94-2.99,5.93c3.6,5.55,7.34,11,10.93,16.56.13.23.27.46.4.67c1.1-1.84,2.06-3.69,2.96-5.56-1.03-1.8-2.05-3.59-3.16-5.4-2.56-4.17-5.46-8.13-8.14-12.2Z" fill="#c66802"/><path d="M345.75,141.27c-.35,2.63-.89,5.25-1.67,7.74-.01.04-.03.07-.04.09c2.81,4.61,6.11,8.87,8.94,13.49.88,1.4,1.68,2.85,2.49,4.29.88-2.39,1.52-4.78,2.06-7.15-2.25-3.69-4.44-7.42-6.88-10.94-1.73-2.49-3.37-4.99-4.9-7.52Z" fill="#c66802"/><path d="M345.84,123.56c.2,1.92.37,4.22.45,6.73c2.55,6.58,6.59,12.26,10.57,18.1.61.89,1.17,1.82,1.75,2.72.09-3.25-.21-6.42-.89-9.47-4.11-5.93-8.25-11.92-11.88-18.08Z" fill="#c66802"/><path d="M323.72,181.56c3.58,5.34,7.39,10.54,11.06,15.81c1.49-1.43,2.92-2.9,4.26-4.37-3.68-5.45-7.3-10.94-10.9-16.44-1.44,1.71-2.89,3.4-4.42,5Z" fill="#c66802"/><path d="M314.99,189.51c3.74,5.14,6.76,10.73,9.99,16.19c2.03-1.52,3.94-3.09,5.8-4.71-3.61-5.22-7.36-10.35-10.92-15.61-1.61,1.49-3.24,2.87-4.87,4.13Z" fill="#c66802"/></g><path d="M344.07,149.01c-3.16,9.82-10.1,21.19-18.37,30.44c3.66,5.41,7.2,10.9,10.62,16.46c12.14-12.19,19.77-26.2,21.76-39.26-4.08-6.42-8.05-12.94-11.99-19.35-.23,3.9-.82,7.92-2.02,11.71Z" opacity="0.32" fill="#7a4103"/><path d="M257.85,116.34c-34.09,21.46-50.31,57.02-36.24,79.39c14.09,22.37,53.16,23.09,87.24,1.64c34.11-21.48,50.34-57.02,36.25-79.39-14.08-22.37-53.15-23.11-87.25-1.64Z" fill="#fcd517"/><path d="M271.45,109.15c19.19,5.98,38.21,13.5,55.91,22.57c7.65,3.92,14.88,8.45,21.89,13.26c1.93-9.84.76-19.22-4.15-27.01-12.23-19.43-43.34-22.42-73.65-8.82Z" fill="#ffbc00"/><path d="M257.85,116.34c-2.68,1.68-5.21,3.49-7.67,5.35c13.5.79,26.95,2.03,40.14,4.41-9.62-3.94-19.25-7.76-28.77-11.92-1.24.72-2.47,1.38-3.7,2.16Z" fill="#ffbc00"/><path d="M268,154.97c-10.82-5.04-23.26-11.63-31.37-21.12-18.88,20.25-25.73,44.87-15.01,61.89c14.09,22.37,53.16,23.09,87.24,1.64c14.33-9.01,25.44-20.5,32.52-32.45-2.21.22-4.41.45-6.63.61-22.6,1.43-46.01-.94-66.75-10.57Z" opacity="0.54" fill="#fff7ab"/><path d="M268,154.97c-10.82-5.04-23.26-11.63-31.37-21.12-2.99,3.2-5.55,6.53-7.91,9.9c17.57,25.05,49.44,32.11,80.08,29.85c10.12-.74,19.98-2.47,29.8-4.39.98-1.43,1.93-2.86,2.78-4.3-2.21.22-4.41.45-6.63.61-22.6,1.45-46.01-.92-66.75-10.55Z" opacity="0.54" fill="#fff7ab"/><g><path d="M309.16,192.47c-49.82,28.39-76.68,12.86-83.92,7.9c16.34,17.68,52.09,16.86,83.62-3c25.79-16.23,41.32-40.48,41.3-61.02-2.22,19.38-16.62,42.2-41,56.12Z" fill="#ffffd7"/></g><path d="M262.15,123.18c-27.2,17.14-41.45,43.45-31.83,58.75c9.64,15.31,39.53,13.82,66.73-3.32c27.22-17.14,41.47-43.44,31.84-58.75-9.62-15.28-39.52-13.82-66.74,3.32Z" fill="url(#eXeiF8t3Qbr203-fill)"/><path d="M242.29,139.67c-13.49,14.81-18.83,31.34-11.96,42.25c9.64,15.31,39.53,13.82,66.73-3.32c6.52-4.11,12.27-8.74,17.15-13.62-1.89-.05-3.78.01-5.68-.14-22.41-1.9-48.7-9.99-66.24-25.17Z" fill="url(#eXeiF8t3Qbr204-fill)"/><path d="M262.15,123.18c-27.2,17.14-41.45,43.45-31.83,58.75.55.87,1.16,1.67,1.86,2.44-6.6-15.54,7.51-39.88,33.2-56.05c25.68-16.18,53.74-18.39,64.9-5.72-.39-.94-.84-1.84-1.4-2.73-9.61-15.29-39.51-13.83-66.73,3.31Z" fill="#ed8203"/><path d="M221.62,195.73c0,0-14.01-26.55,15.59-59.37c12.66-14.01,26.85-22.36,42.86-30.67-7.43,2.56-14.93,6.08-22.21,10.66-34.1,21.46-50.32,57.01-36.24,79.38Z" fill="#f9af19"/><g><path d="M282.29,181.77l3.83-5.59c.17-.24.14-.53-.06-.73l-6.27-6.21c-.34-.33-.99-.27-1.26.13l-3.8,5.62c-.16.24-.13.53.07.73l6.23,6.17c.35.35.99.28,1.26-.12" fill="#d67003"/><path d="M279.94,157.02c-4.33-3.63-3.59-9.79,1.57-13c4.06-2.53,9.66-2.28,13.06.58c4.33,3.63,3.59,9.78-1.57,13-4.05,2.52-9.65,2.28-13.06-.58m9.83,13.86l18.33-26.74c3.94-5.75-2.53-12.16-9.83-9.74l-48.85,16.18l7.41,7.33l9.01-3.03c.68-.23,1.43-.08,1.89.37l16.37,16.22c1.51,1.5,4.43,1.2,5.67-.59" fill="#d67003"/><path d="M282.27,153.51l.67-5.53c.07-.56.67-1,1.33-.97l6.55.29c.67.03,1.15.51,1.08,1.07l-.67,5.53c-.07.56-.67,1-1.33.97l-6.55-.29c-.66-.03-1.15-.51-1.08-1.07" fill="#d67003"/><path d="M282.29,181.77l3.83-5.59c.17-.24.87-2.51.67-2.71l-.11-.24-6.88-3.99c-.34-.33-.99-.26-1.26.13l-3.22,3.42-.57,2.2c-.16.24-.13.53.07.73l6.23,6.17c.33.35.97.28,1.24-.12" fill="#d67003"/><path d="M279.94,157.02c-4.33-3.63-3.59-9.78,1.57-13c4.06-2.53,9.66-2.28,13.06.58c4.33,3.63,3.59,9.78-1.57,13-4.05,2.52-9.65,2.28-13.06-.58m9.83,13.86l18.33-26.74c3.94-5.74-2.54-12.16-9.83-9.74l-48.31,13.87-.54,2.32l7.4,7.33l9.01-3.03c.68-.23,1.43-.08,1.89.37l16.37,16.22c1.52,1.49,4.44,1.19,5.68-.6" fill="#d67003"/><path d="M282.27,153.51l.67-5.53c.07-.56.67-1,1.33-.97l6.55.29c.66.03,1.15.51,1.08,1.07l-.67,5.53c-.07.56-.67,1-1.33.97l-6.54-.29c-.67-.03-1.16-.51-1.09-1.07" fill="#d67003"/><g><path d="M280.54,154.67c-4.33-3.63-3.59-9.79,1.57-13c4.06-2.53,9.66-2.28,13.06.58c4.33,3.63,3.59,9.78-1.57,13-4.05,2.52-9.65,2.28-13.06-.58m9.83,13.85l18.33-26.74c3.94-5.75-2.53-12.16-9.83-9.74l-48.85,16.18l7.41,7.33l9.01-3.03c.68-.23,1.43-.08,1.89.37l16.37,16.22c1.52,1.51,4.44,1.21,5.67-.59" fill="#ffee52"/><path d="M282.87,151.16l.67-5.53c.07-.56.67-1,1.33-.97l6.55.29c.67.03,1.15.51,1.08,1.07l-.67,5.53c-.07.56-.67,1-1.33.97l-6.55-.29c-.66-.03-1.15-.51-1.08-1.07" fill="#ffee52"/><path d="M282.89,179.42l3.83-5.59c.17-.24.14-.53-.06-.73l-6.27-6.21c-.34-.33-.99-.26-1.26.13l-3.8,5.62c-.16.24-.13.53.07.73l6.23,6.17c.35.35.99.28,1.26-.12" fill="#ffee52"/></g></g></g></g></g></g><g id="eXeiF8t3Qbr219" transform="matrix(.185984 0.263151-.263151 0.185984 62.336747-466.576471)"><g transform="translate(0 0.000001)"><g><path d="M345.11,117.98c0,0,3.32,17.45-1.04,31.03-5.34,16.6-21.38,37.73-36.67,45.46-56.84,28.71-85.78,1.27-85.78,1.27.72,1.79,7.52,11.92,8.57,13.6c14.08,22.37,53.16,23.11,87.24,1.64c34.11-21.46,50.33-57.02,36.25-79.39-.99-1.58-7.37-12.27-8.57-13.61Z" fill="#ed8203"/><g><path d="M237.93,204.32c-2.69-.86-4.91-1.82-6.91-2.79c2.61,4.38,4.79,9.02,7.59,13.35c1.18,1.81,2.3,3.67,3.46,5.51c2.58,1.47,5.36,2.72,8.36,3.64-.64-1.06-1.28-2.16-1.97-3.22-3.6-5.48-7.57-10.64-10.53-16.49Z" fill="#c66802"/><path d="M292.92,200.73c3.53,5.85,6.95,11.8,10.4,17.71c2.3-1.02,4.6-2.1,6.89-3.32-3.78-5.59-8.41-10.7-11.7-16.54-1.94.83-3.75,1.43-5.59,2.15Z" fill="#c66802"/><path d="M258.19,207.34c2.94,4.64,5.8,9.37,8.58,14.09.98,1.64,1.85,3.32,2.75,5.03c2.14-.06,4.3-.18,6.52-.42-4.11-6.25-8.17-12.5-12.1-18.86-2,.15-3.9.18-5.75.16Z" fill="#c66802"/><path d="M245.32,206.09c2.92,5.57,7.15,10.33,10.43,15.79.75,1.25,1.46,2.56,2.17,3.87c1.53.23,3.09.44,4.68.54-3.62-6.49-7.02-13.2-10.98-19.3-2.23-.21-4.32-.54-6.3-.9Z" fill="#c66802"/><path d="M269.91,206.59c3.91,6.23,7.9,12.43,11.97,18.57c1.62-.31,3.28-.64,4.94-1.07-4.19-5.84-8.18-11.83-11.18-18.42-1.98.39-3.88.68-5.73.92Z" fill="#c66802"/><path d="M280.95,204.51c3.02,6.46,7.07,12.33,11.28,18.09c2.04-.62,4.06-1.31,6.09-2.09-3.48-6-6.93-12.04-10.56-17.95-2.33.76-4.6,1.37-6.81,1.95Z" fill="#c66802"/><path d="M307.4,194.46c-1.37.71-2.72,1.33-4.08,1.97c3.1,5.71,7.55,10.74,11.33,16.16.93-.55,1.87-1.04,2.78-1.63c1.14-.71,2.19-1.48,3.29-2.21-3.28-5.46-6.37-11.04-10.13-16.23-1.08.67-2.13,1.4-3.19,1.94Z" fill="#c66802"/><path d="M335.56,166.38c-1.25,1.94-2.56,3.85-3.94,5.73c3.61,5.6,7.33,11.15,11.06,16.67c1.45-1.76,2.79-3.56,4.04-5.37-.56-.93-1.12-1.86-1.73-2.77-3.19-4.7-6.32-9.49-9.43-14.26Z" fill="#c66802"/><path d="M341.59,155.32c-.9,1.97-1.9,3.94-2.99,5.93c3.6,5.55,7.34,11,10.93,16.56.13.23.27.46.4.67c1.1-1.84,2.06-3.69,2.96-5.56-1.03-1.8-2.05-3.59-3.16-5.4-2.56-4.17-5.46-8.13-8.14-12.2Z" fill="#c66802"/><path d="M345.75,141.27c-.35,2.63-.89,5.25-1.67,7.74-.01.04-.03.07-.04.09c2.81,4.61,6.11,8.87,8.94,13.49.88,1.4,1.68,2.85,2.49,4.29.88-2.39,1.52-4.78,2.06-7.15-2.25-3.69-4.44-7.42-6.88-10.94-1.73-2.49-3.37-4.99-4.9-7.52Z" fill="#c66802"/><path d="M345.84,123.56c.2,1.92.37,4.22.45,6.73c2.55,6.58,6.59,12.26,10.57,18.1.61.89,1.17,1.82,1.75,2.72.09-3.25-.21-6.42-.89-9.47-4.11-5.93-8.25-11.92-11.88-18.08Z" fill="#c66802"/><path d="M323.72,181.56c3.58,5.34,7.39,10.54,11.06,15.81c1.49-1.43,2.92-2.9,4.26-4.37-3.68-5.45-7.3-10.94-10.9-16.44-1.44,1.71-2.89,3.4-4.42,5Z" fill="#c66802"/><path d="M314.99,189.51c3.74,5.14,6.76,10.73,9.99,16.19c2.03-1.52,3.94-3.09,5.8-4.71-3.61-5.22-7.36-10.35-10.92-15.61-1.61,1.49-3.24,2.87-4.87,4.13Z" fill="#c66802"/></g><path d="M344.07,149.01c-3.16,9.82-10.1,21.19-18.37,30.44c3.66,5.41,7.2,10.9,10.62,16.46c12.14-12.19,19.77-26.2,21.76-39.26-4.08-6.42-8.05-12.94-11.99-19.35-.23,3.9-.82,7.92-2.02,11.71Z" opacity="0.32" fill="#7a4103"/><path d="M257.85,116.34c-34.09,21.46-50.31,57.02-36.24,79.39c14.09,22.37,53.16,23.09,87.24,1.64c34.11-21.48,50.34-57.02,36.25-79.39-14.08-22.37-53.15-23.11-87.25-1.64Z" fill="#fcd517"/><path d="M271.45,109.15c19.19,5.98,38.21,13.5,55.91,22.57c7.65,3.92,14.88,8.45,21.89,13.26c1.93-9.84.76-19.22-4.15-27.01-12.23-19.43-43.34-22.42-73.65-8.82Z" fill="#ffbc00"/><path d="M257.85,116.34c-2.68,1.68-5.21,3.49-7.67,5.35c13.5.79,26.95,2.03,40.14,4.41-9.62-3.94-19.25-7.76-28.77-11.92-1.24.72-2.47,1.38-3.7,2.16Z" fill="#ffbc00"/><path d="M268,154.97c-10.82-5.04-23.26-11.63-31.37-21.12-18.88,20.25-25.73,44.87-15.01,61.89c14.09,22.37,53.16,23.09,87.24,1.64c14.33-9.01,25.44-20.5,32.52-32.45-2.21.22-4.41.45-6.63.61-22.6,1.43-46.01-.94-66.75-10.57Z" opacity="0.54" fill="#fff7ab"/><path d="M268,154.97c-10.82-5.04-23.26-11.63-31.37-21.12-2.99,3.2-5.55,6.53-7.91,9.9c17.57,25.05,49.44,32.11,80.08,29.85c10.12-.74,19.98-2.47,29.8-4.39.98-1.43,1.93-2.86,2.78-4.3-2.21.22-4.41.45-6.63.61-22.6,1.45-46.01-.92-66.75-10.55Z" opacity="0.54" fill="#fff7ab"/><g><path d="M309.16,192.47c-49.82,28.39-76.68,12.86-83.92,7.9c16.34,17.68,52.09,16.86,83.62-3c25.79-16.23,41.32-40.48,41.3-61.02-2.22,19.38-16.62,42.2-41,56.12Z" fill="#ffffd7"/></g><path d="M262.15,123.18c-27.2,17.14-41.45,43.45-31.83,58.75c9.64,15.31,39.53,13.82,66.73-3.32c27.22-17.14,41.47-43.44,31.84-58.75-9.62-15.28-39.52-13.82-66.74,3.32Z" fill="url(#eXeiF8t3Qbr245-fill)"/><path d="M242.29,139.67c-13.49,14.81-18.83,31.34-11.96,42.25c9.64,15.31,39.53,13.82,66.73-3.32c6.52-4.11,12.27-8.74,17.15-13.62-1.89-.05-3.78.01-5.68-.14-22.41-1.9-48.7-9.99-66.24-25.17Z" fill="url(#eXeiF8t3Qbr246-fill)"/><path d="M262.15,123.18c-27.2,17.14-41.45,43.45-31.83,58.75.55.87,1.16,1.67,1.86,2.44-6.6-15.54,7.51-39.88,33.2-56.05c25.68-16.18,53.74-18.39,64.9-5.72-.39-.94-.84-1.84-1.4-2.73-9.61-15.29-39.51-13.83-66.73,3.31Z" fill="#ed8203"/><path d="M221.62,195.73c0,0-14.01-26.55,15.59-59.37c12.66-14.01,26.85-22.36,42.86-30.67-7.43,2.56-14.93,6.08-22.21,10.66-34.1,21.46-50.32,57.01-36.24,79.38Z" fill="#f9af19"/><g><path d="M282.29,181.77l3.83-5.59c.17-.24.14-.53-.06-.73l-6.27-6.21c-.34-.33-.99-.27-1.26.13l-3.8,5.62c-.16.24-.13.53.07.73l6.23,6.17c.35.35.99.28,1.26-.12" fill="#d67003"/><path d="M279.94,157.02c-4.33-3.63-3.59-9.79,1.57-13c4.06-2.53,9.66-2.28,13.06.58c4.33,3.63,3.59,9.78-1.57,13-4.05,2.52-9.65,2.28-13.06-.58m9.83,13.86l18.33-26.74c3.94-5.75-2.53-12.16-9.83-9.74l-48.85,16.18l7.41,7.33l9.01-3.03c.68-.23,1.43-.08,1.89.37l16.37,16.22c1.51,1.5,4.43,1.2,5.67-.59" fill="#d67003"/><path d="M282.27,153.51l.67-5.53c.07-.56.67-1,1.33-.97l6.55.29c.67.03,1.15.51,1.08,1.07l-.67,5.53c-.07.56-.67,1-1.33.97l-6.55-.29c-.66-.03-1.15-.51-1.08-1.07" fill="#d67003"/><path d="M282.29,181.77l3.83-5.59c.17-.24.87-2.51.67-2.71l-.11-.24-6.88-3.99c-.34-.33-.99-.26-1.26.13l-3.22,3.42-.57,2.2c-.16.24-.13.53.07.73l6.23,6.17c.33.35.97.28,1.24-.12" fill="#d67003"/><path d="M279.94,157.02c-4.33-3.63-3.59-9.78,1.57-13c4.06-2.53,9.66-2.28,13.06.58c4.33,3.63,3.59,9.78-1.57,13-4.05,2.52-9.65,2.28-13.06-.58m9.83,13.86l18.33-26.74c3.94-5.74-2.54-12.16-9.83-9.74l-48.31,13.87-.54,2.32l7.4,7.33l9.01-3.03c.68-.23,1.43-.08,1.89.37l16.37,16.22c1.52,1.49,4.44,1.19,5.68-.6" fill="#d67003"/><path d="M282.27,153.51l.67-5.53c.07-.56.67-1,1.33-.97l6.55.29c.66.03,1.15.51,1.08,1.07l-.67,5.53c-.07.56-.67,1-1.33.97l-6.54-.29c-.67-.03-1.16-.51-1.09-1.07" fill="#d67003"/><g><path d="M280.54,154.67c-4.33-3.63-3.59-9.79,1.57-13c4.06-2.53,9.66-2.28,13.06.58c4.33,3.63,3.59,9.78-1.57,13-4.05,2.52-9.65,2.28-13.06-.58m9.83,13.85l18.33-26.74c3.94-5.75-2.53-12.16-9.83-9.74l-48.85,16.18l7.41,7.33l9.01-3.03c.68-.23,1.43-.08,1.89.37l16.37,16.22c1.52,1.51,4.44,1.21,5.67-.59" fill="#ffee52"/><path d="M282.87,151.16l.67-5.53c.07-.56.67-1,1.33-.97l6.55.29c.67.03,1.15.51,1.08,1.07l-.67,5.53c-.07.56-.67,1-1.33.97l-6.55-.29c-.66-.03-1.15-.51-1.08-1.07" fill="#ffee52"/><path d="M282.89,179.42l3.83-5.59c.17-.24.14-.53-.06-.73l-6.27-6.21c-.34-.33-.99-.26-1.26.13l-3.8,5.62c-.16.24-.13.53.07.73l6.23,6.17c.35.35.99.28,1.26-.12" fill="#ffee52"/></g></g></g></g></g><g transform="matrix(1.004126-.024319 0.024503 1.011713 258.104281-43.429408)"><g id="eXeiF8t3Qbr261" transform="matrix(.160579-.279379 0.279379 0.160579-50.201009-218.8161)"><g transform="translate(0 0.000001)"><g><path d="M345.11,117.98c0,0,3.32,17.45-1.04,31.03-5.34,16.6-21.38,37.73-36.67,45.46-56.84,28.71-85.78,1.27-85.78,1.27.72,1.79,7.52,11.92,8.57,13.6c14.08,22.37,53.16,23.11,87.24,1.64c34.11-21.46,50.33-57.02,36.25-79.39-.99-1.58-7.37-12.27-8.57-13.61Z" fill="#ed8203"/><g><path d="M237.93,204.32c-2.69-.86-4.91-1.82-6.91-2.79c2.61,4.38,4.79,9.02,7.59,13.35c1.18,1.81,2.3,3.67,3.46,5.51c2.58,1.47,5.36,2.72,8.36,3.64-.64-1.06-1.28-2.16-1.97-3.22-3.6-5.48-7.57-10.64-10.53-16.49Z" fill="#c66802"/><path d="M292.92,200.73c3.53,5.85,6.95,11.8,10.4,17.71c2.3-1.02,4.6-2.1,6.89-3.32-3.78-5.59-8.41-10.7-11.7-16.54-1.94.83-3.75,1.43-5.59,2.15Z" fill="#c66802"/><path d="M258.19,207.34c2.94,4.64,5.8,9.37,8.58,14.09.98,1.64,1.85,3.32,2.75,5.03c2.14-.06,4.3-.18,6.52-.42-4.11-6.25-8.17-12.5-12.1-18.86-2,.15-3.9.18-5.75.16Z" fill="#c66802"/><path d="M245.32,206.09c2.92,5.57,7.15,10.33,10.43,15.79.75,1.25,1.46,2.56,2.17,3.87c1.53.23,3.09.44,4.68.54-3.62-6.49-7.02-13.2-10.98-19.3-2.23-.21-4.32-.54-6.3-.9Z" fill="#c66802"/><path d="M269.91,206.59c3.91,6.23,7.9,12.43,11.97,18.57c1.62-.31,3.28-.64,4.94-1.07-4.19-5.84-8.18-11.83-11.18-18.42-1.98.39-3.88.68-5.73.92Z" fill="#c66802"/><path d="M280.95,204.51c3.02,6.46,7.07,12.33,11.28,18.09c2.04-.62,4.06-1.31,6.09-2.09-3.48-6-6.93-12.04-10.56-17.95-2.33.76-4.6,1.37-6.81,1.95Z" fill="#c66802"/><path d="M307.4,194.46c-1.37.71-2.72,1.33-4.08,1.97c3.1,5.71,7.55,10.74,11.33,16.16.93-.55,1.87-1.04,2.78-1.63c1.14-.71,2.19-1.48,3.29-2.21-3.28-5.46-6.37-11.04-10.13-16.23-1.08.67-2.13,1.4-3.19,1.94Z" fill="#c66802"/><path d="M335.56,166.38c-1.25,1.94-2.56,3.85-3.94,5.73c3.61,5.6,7.33,11.15,11.06,16.67c1.45-1.76,2.79-3.56,4.04-5.37-.56-.93-1.12-1.86-1.73-2.77-3.19-4.7-6.32-9.49-9.43-14.26Z" fill="#c66802"/><path d="M341.59,155.32c-.9,1.97-1.9,3.94-2.99,5.93c3.6,5.55,7.34,11,10.93,16.56.13.23.27.46.4.67c1.1-1.84,2.06-3.69,2.96-5.56-1.03-1.8-2.05-3.59-3.16-5.4-2.56-4.17-5.46-8.13-8.14-12.2Z" fill="#c66802"/><path d="M345.75,141.27c-.35,2.63-.89,5.25-1.67,7.74-.01.04-.03.07-.04.09c2.81,4.61,6.11,8.87,8.94,13.49.88,1.4,1.68,2.85,2.49,4.29.88-2.39,1.52-4.78,2.06-7.15-2.25-3.69-4.44-7.42-6.88-10.94-1.73-2.49-3.37-4.99-4.9-7.52Z" fill="#c66802"/><path d="M345.84,123.56c.2,1.92.37,4.22.45,6.73c2.55,6.58,6.59,12.26,10.57,18.1.61.89,1.17,1.82,1.75,2.72.09-3.25-.21-6.42-.89-9.47-4.11-5.93-8.25-11.92-11.88-18.08Z" fill="#c66802"/><path d="M323.72,181.56c3.58,5.34,7.39,10.54,11.06,15.81c1.49-1.43,2.92-2.9,4.26-4.37-3.68-5.45-7.3-10.94-10.9-16.44-1.44,1.71-2.89,3.4-4.42,5Z" fill="#c66802"/><path d="M314.99,189.51c3.74,5.14,6.76,10.73,9.99,16.19c2.03-1.52,3.94-3.09,5.8-4.71-3.61-5.22-7.36-10.35-10.92-15.61-1.61,1.49-3.24,2.87-4.87,4.13Z" fill="#c66802"/></g><path d="M344.07,149.01c-3.16,9.82-10.1,21.19-18.37,30.44c3.66,5.41,7.2,10.9,10.62,16.46c12.14-12.19,19.77-26.2,21.76-39.26-4.08-6.42-8.05-12.94-11.99-19.35-.23,3.9-.82,7.92-2.02,11.71Z" opacity="0.32" fill="#7a4103"/><path d="M257.85,116.34c-34.09,21.46-50.31,57.02-36.24,79.39c14.09,22.37,53.16,23.09,87.24,1.64c34.11-21.48,50.34-57.02,36.25-79.39-14.08-22.37-53.15-23.11-87.25-1.64Z" fill="#fcd517"/><path d="M271.45,109.15c19.19,5.98,38.21,13.5,55.91,22.57c7.65,3.92,14.88,8.45,21.89,13.26c1.93-9.84.76-19.22-4.15-27.01-12.23-19.43-43.34-22.42-73.65-8.82Z" fill="#ffbc00"/><path d="M257.85,116.34c-2.68,1.68-5.21,3.49-7.67,5.35c13.5.79,26.95,2.03,40.14,4.41-9.62-3.94-19.25-7.76-28.77-11.92-1.24.72-2.47,1.38-3.7,2.16Z" fill="#ffbc00"/><path d="M268,154.97c-10.82-5.04-23.26-11.63-31.37-21.12-18.88,20.25-25.73,44.87-15.01,61.89c14.09,22.37,53.16,23.09,87.24,1.64c14.33-9.01,25.44-20.5,32.52-32.45-2.21.22-4.41.45-6.63.61-22.6,1.43-46.01-.94-66.75-10.57Z" opacity="0.54" fill="#fff7ab"/><path d="M268,154.97c-10.82-5.04-23.26-11.63-31.37-21.12-2.99,3.2-5.55,6.53-7.91,9.9c17.57,25.05,49.44,32.11,80.08,29.85c10.12-.74,19.98-2.47,29.8-4.39.98-1.43,1.93-2.86,2.78-4.3-2.21.22-4.41.45-6.63.61-22.6,1.45-46.01-.92-66.75-10.55Z" opacity="0.54" fill="#fff7ab"/><g><path d="M309.16,192.47c-49.82,28.39-76.68,12.86-83.92,7.9c16.34,17.68,52.09,16.86,83.62-3c25.79-16.23,41.32-40.48,41.3-61.02-2.22,19.38-16.62,42.2-41,56.12Z" fill="#ffffd7"/></g><path d="M262.15,123.18c-27.2,17.14-41.45,43.45-31.83,58.75c9.64,15.31,39.53,13.82,66.73-3.32c27.22-17.14,41.47-43.44,31.84-58.75-9.62-15.28-39.52-13.82-66.74,3.32Z" fill="url(#eXeiF8t3Qbr287-fill)"/><path d="M242.29,139.67c-13.49,14.81-18.83,31.34-11.96,42.25c9.64,15.31,39.53,13.82,66.73-3.32c6.52-4.11,12.27-8.74,17.15-13.62-1.89-.05-3.78.01-5.68-.14-22.41-1.9-48.7-9.99-66.24-25.17Z" fill="url(#eXeiF8t3Qbr288-fill)"/><path d="M262.15,123.18c-27.2,17.14-41.45,43.45-31.83,58.75.55.87,1.16,1.67,1.86,2.44-6.6-15.54,7.51-39.88,33.2-56.05c25.68-16.18,53.74-18.39,64.9-5.72-.39-.94-.84-1.84-1.4-2.73-9.61-15.29-39.51-13.83-66.73,3.31Z" fill="#ed8203"/><path d="M221.62,195.73c0,0-14.01-26.55,15.59-59.37c12.66-14.01,26.85-22.36,42.86-30.67-7.43,2.56-14.93,6.08-22.21,10.66-34.1,21.46-50.32,57.01-36.24,79.38Z" fill="#f9af19"/><g><path d="M282.29,181.77l3.83-5.59c.17-.24.14-.53-.06-.73l-6.27-6.21c-.34-.33-.99-.27-1.26.13l-3.8,5.62c-.16.24-.13.53.07.73l6.23,6.17c.35.35.99.28,1.26-.12" fill="#d67003"/><path d="M279.94,157.02c-4.33-3.63-3.59-9.79,1.57-13c4.06-2.53,9.66-2.28,13.06.58c4.33,3.63,3.59,9.78-1.57,13-4.05,2.52-9.65,2.28-13.06-.58m9.83,13.86l18.33-26.74c3.94-5.75-2.53-12.16-9.83-9.74l-48.85,16.18l7.41,7.33l9.01-3.03c.68-.23,1.43-.08,1.89.37l16.37,16.22c1.51,1.5,4.43,1.2,5.67-.59" fill="#d67003"/><path d="M282.27,153.51l.67-5.53c.07-.56.67-1,1.33-.97l6.55.29c.67.03,1.15.51,1.08,1.07l-.67,5.53c-.07.56-.67,1-1.33.97l-6.55-.29c-.66-.03-1.15-.51-1.08-1.07" fill="#d67003"/><path d="M282.29,181.77l3.83-5.59c.17-.24.87-2.51.67-2.71l-.11-.24-6.88-3.99c-.34-.33-.99-.26-1.26.13l-3.22,3.42-.57,2.2c-.16.24-.13.53.07.73l6.23,6.17c.33.35.97.28,1.24-.12" fill="#d67003"/><path d="M279.94,157.02c-4.33-3.63-3.59-9.78,1.57-13c4.06-2.53,9.66-2.28,13.06.58c4.33,3.63,3.59,9.78-1.57,13-4.05,2.52-9.65,2.28-13.06-.58m9.83,13.86l18.33-26.74c3.94-5.74-2.54-12.16-9.83-9.74l-48.31,13.87-.54,2.32l7.4,7.33l9.01-3.03c.68-.23,1.43-.08,1.89.37l16.37,16.22c1.52,1.49,4.44,1.19,5.68-.6" fill="#d67003"/><path d="M282.27,153.51l.67-5.53c.07-.56.67-1,1.33-.97l6.55.29c.66.03,1.15.51,1.08,1.07l-.67,5.53c-.07.56-.67,1-1.33.97l-6.54-.29c-.67-.03-1.16-.51-1.09-1.07" fill="#d67003"/><g><path d="M280.54,154.67c-4.33-3.63-3.59-9.79,1.57-13c4.06-2.53,9.66-2.28,13.06.58c4.33,3.63,3.59,9.78-1.57,13-4.05,2.52-9.65,2.28-13.06-.58m9.83,13.85l18.33-26.74c3.94-5.75-2.53-12.16-9.83-9.74l-48.85,16.18l7.41,7.33l9.01-3.03c.68-.23,1.43-.08,1.89.37l16.37,16.22c1.52,1.51,4.44,1.21,5.67-.59" fill="#ffee52"/><path d="M282.87,151.16l.67-5.53c.07-.56.67-1,1.33-.97l6.55.29c.67.03,1.15.51,1.08,1.07l-.67,5.53c-.07.56-.67,1-1.33.97l-6.55-.29c-.66-.03-1.15-.51-1.08-1.07" fill="#ffee52"/><path d="M282.89,179.42l3.83-5.59c.17-.24.14-.53-.06-.73l-6.27-6.21c-.34-.33-.99-.26-1.26.13l-3.8,5.62c-.16.24-.13.53.07.73l6.23,6.17c.35.35.99.28,1.26-.12" fill="#ffee52"/></g></g></g></g></g></g><g transform="translate(161.025834-138.868205)"><g id="eXeiF8t3Qbr303" transform="matrix(.31681 0.058906-.058906 0.31681-40.917204-236.522198)"><g transform="translate(0 0.000001)"><g><path d="M345.11,117.98c0,0,3.32,17.45-1.04,31.03-5.34,16.6-21.38,37.73-36.67,45.46-56.84,28.71-85.78,1.27-85.78,1.27.72,1.79,7.52,11.92,8.57,13.6c14.08,22.37,53.16,23.11,87.24,1.64c34.11-21.46,50.33-57.02,36.25-79.39-.99-1.58-7.37-12.27-8.57-13.61Z" fill="#ed8203"/><g><path d="M237.93,204.32c-2.69-.86-4.91-1.82-6.91-2.79c2.61,4.38,4.79,9.02,7.59,13.35c1.18,1.81,2.3,3.67,3.46,5.51c2.58,1.47,5.36,2.72,8.36,3.64-.64-1.06-1.28-2.16-1.97-3.22-3.6-5.48-7.57-10.64-10.53-16.49Z" fill="#c66802"/><path d="M292.92,200.73c3.53,5.85,6.95,11.8,10.4,17.71c2.3-1.02,4.6-2.1,6.89-3.32-3.78-5.59-8.41-10.7-11.7-16.54-1.94.83-3.75,1.43-5.59,2.15Z" fill="#c66802"/><path d="M258.19,207.34c2.94,4.64,5.8,9.37,8.58,14.09.98,1.64,1.85,3.32,2.75,5.03c2.14-.06,4.3-.18,6.52-.42-4.11-6.25-8.17-12.5-12.1-18.86-2,.15-3.9.18-5.75.16Z" fill="#c66802"/><path d="M245.32,206.09c2.92,5.57,7.15,10.33,10.43,15.79.75,1.25,1.46,2.56,2.17,3.87c1.53.23,3.09.44,4.68.54-3.62-6.49-7.02-13.2-10.98-19.3-2.23-.21-4.32-.54-6.3-.9Z" fill="#c66802"/><path d="M269.91,206.59c3.91,6.23,7.9,12.43,11.97,18.57c1.62-.31,3.28-.64,4.94-1.07-4.19-5.84-8.18-11.83-11.18-18.42-1.98.39-3.88.68-5.73.92Z" fill="#c66802"/><path d="M280.95,204.51c3.02,6.46,7.07,12.33,11.28,18.09c2.04-.62,4.06-1.31,6.09-2.09-3.48-6-6.93-12.04-10.56-17.95-2.33.76-4.6,1.37-6.81,1.95Z" fill="#c66802"/><path d="M307.4,194.46c-1.37.71-2.72,1.33-4.08,1.97c3.1,5.71,7.55,10.74,11.33,16.16.93-.55,1.87-1.04,2.78-1.63c1.14-.71,2.19-1.48,3.29-2.21-3.28-5.46-6.37-11.04-10.13-16.23-1.08.67-2.13,1.4-3.19,1.94Z" fill="#c66802"/><path d="M335.56,166.38c-1.25,1.94-2.56,3.85-3.94,5.73c3.61,5.6,7.33,11.15,11.06,16.67c1.45-1.76,2.79-3.56,4.04-5.37-.56-.93-1.12-1.86-1.73-2.77-3.19-4.7-6.32-9.49-9.43-14.26Z" fill="#c66802"/><path d="M341.59,155.32c-.9,1.97-1.9,3.94-2.99,5.93c3.6,5.55,7.34,11,10.93,16.56.13.23.27.46.4.67c1.1-1.84,2.06-3.69,2.96-5.56-1.03-1.8-2.05-3.59-3.16-5.4-2.56-4.17-5.46-8.13-8.14-12.2Z" fill="#c66802"/><path d="M345.75,141.27c-.35,2.63-.89,5.25-1.67,7.74-.01.04-.03.07-.04.09c2.81,4.61,6.11,8.87,8.94,13.49.88,1.4,1.68,2.85,2.49,4.29.88-2.39,1.52-4.78,2.06-7.15-2.25-3.69-4.44-7.42-6.88-10.94-1.73-2.49-3.37-4.99-4.9-7.52Z" fill="#c66802"/><path d="M345.84,123.56c.2,1.92.37,4.22.45,6.73c2.55,6.58,6.59,12.26,10.57,18.1.61.89,1.17,1.82,1.75,2.72.09-3.25-.21-6.42-.89-9.47-4.11-5.93-8.25-11.92-11.88-18.08Z" fill="#c66802"/><path d="M323.72,181.56c3.58,5.34,7.39,10.54,11.06,15.81c1.49-1.43,2.92-2.9,4.26-4.37-3.68-5.45-7.3-10.94-10.9-16.44-1.44,1.71-2.89,3.4-4.42,5Z" fill="#c66802"/><path d="M314.99,189.51c3.74,5.14,6.76,10.73,9.99,16.19c2.03-1.52,3.94-3.09,5.8-4.71-3.61-5.22-7.36-10.35-10.92-15.61-1.61,1.49-3.24,2.87-4.87,4.13Z" fill="#c66802"/></g><path d="M344.07,149.01c-3.16,9.82-10.1,21.19-18.37,30.44c3.66,5.41,7.2,10.9,10.62,16.46c12.14-12.19,19.77-26.2,21.76-39.26-4.08-6.42-8.05-12.94-11.99-19.35-.23,3.9-.82,7.92-2.02,11.71Z" opacity="0.32" fill="#7a4103"/><path d="M257.85,116.34c-34.09,21.46-50.31,57.02-36.24,79.39c14.09,22.37,53.16,23.09,87.24,1.64c34.11-21.48,50.34-57.02,36.25-79.39-14.08-22.37-53.15-23.11-87.25-1.64Z" fill="#fcd517"/><path d="M271.45,109.15c19.19,5.98,38.21,13.5,55.91,22.57c7.65,3.92,14.88,8.45,21.89,13.26c1.93-9.84.76-19.22-4.15-27.01-12.23-19.43-43.34-22.42-73.65-8.82Z" fill="#ffbc00"/><path d="M257.85,116.34c-2.68,1.68-5.21,3.49-7.67,5.35c13.5.79,26.95,2.03,40.14,4.41-9.62-3.94-19.25-7.76-28.77-11.92-1.24.72-2.47,1.38-3.7,2.16Z" fill="#ffbc00"/><path d="M268,154.97c-10.82-5.04-23.26-11.63-31.37-21.12-18.88,20.25-25.73,44.87-15.01,61.89c14.09,22.37,53.16,23.09,87.24,1.64c14.33-9.01,25.44-20.5,32.52-32.45-2.21.22-4.41.45-6.63.61-22.6,1.43-46.01-.94-66.75-10.57Z" opacity="0.54" fill="#fff7ab"/><path d="M268,154.97c-10.82-5.04-23.26-11.63-31.37-21.12-2.99,3.2-5.55,6.53-7.91,9.9c17.57,25.05,49.44,32.11,80.08,29.85c10.12-.74,19.98-2.47,29.8-4.39.98-1.43,1.93-2.86,2.78-4.3-2.21.22-4.41.45-6.63.61-22.6,1.45-46.01-.92-66.75-10.55Z" opacity="0.54" fill="#fff7ab"/><g><path d="M309.16,192.47c-49.82,28.39-76.68,12.86-83.92,7.9c16.34,17.68,52.09,16.86,83.62-3c25.79-16.23,41.32-40.48,41.3-61.02-2.22,19.38-16.62,42.2-41,56.12Z" fill="#ffffd7"/></g><path d="M262.15,123.18c-27.2,17.14-41.45,43.45-31.83,58.75c9.64,15.31,39.53,13.82,66.73-3.32c27.22-17.14,41.47-43.44,31.84-58.75-9.62-15.28-39.52-13.82-66.74,3.32Z" fill="url(#eXeiF8t3Qbr329-fill)"/><path d="M242.29,139.67c-13.49,14.81-18.83,31.34-11.96,42.25c9.64,15.31,39.53,13.82,66.73-3.32c6.52-4.11,12.27-8.74,17.15-13.62-1.89-.05-3.78.01-5.68-.14-22.41-1.9-48.7-9.99-66.24-25.17Z" fill="url(#eXeiF8t3Qbr330-fill)"/><path d="M262.15,123.18c-27.2,17.14-41.45,43.45-31.83,58.75.55.87,1.16,1.67,1.86,2.44-6.6-15.54,7.51-39.88,33.2-56.05c25.68-16.18,53.74-18.39,64.9-5.72-.39-.94-.84-1.84-1.4-2.73-9.61-15.29-39.51-13.83-66.73,3.31Z" fill="#ed8203"/><path d="M221.62,195.73c0,0-14.01-26.55,15.59-59.37c12.66-14.01,26.85-22.36,42.86-30.67-7.43,2.56-14.93,6.08-22.21,10.66-34.1,21.46-50.32,57.01-36.24,79.38Z" fill="#f9af19"/><g><path d="M282.29,181.77l3.83-5.59c.17-.24.14-.53-.06-.73l-6.27-6.21c-.34-.33-.99-.27-1.26.13l-3.8,5.62c-.16.24-.13.53.07.73l6.23,6.17c.35.35.99.28,1.26-.12" fill="#d67003"/><path d="M279.94,157.02c-4.33-3.63-3.59-9.79,1.57-13c4.06-2.53,9.66-2.28,13.06.58c4.33,3.63,3.59,9.78-1.57,13-4.05,2.52-9.65,2.28-13.06-.58m9.83,13.86l18.33-26.74c3.94-5.75-2.53-12.16-9.83-9.74l-48.85,16.18l7.41,7.33l9.01-3.03c.68-.23,1.43-.08,1.89.37l16.37,16.22c1.51,1.5,4.43,1.2,5.67-.59" fill="#d67003"/><path d="M282.27,153.51l.67-5.53c.07-.56.67-1,1.33-.97l6.55.29c.67.03,1.15.51,1.08,1.07l-.67,5.53c-.07.56-.67,1-1.33.97l-6.55-.29c-.66-.03-1.15-.51-1.08-1.07" fill="#d67003"/><path d="M282.29,181.77l3.83-5.59c.17-.24.87-2.51.67-2.71l-.11-.24-6.88-3.99c-.34-.33-.99-.26-1.26.13l-3.22,3.42-.57,2.2c-.16.24-.13.53.07.73l6.23,6.17c.33.35.97.28,1.24-.12" fill="#d67003"/><path d="M279.94,157.02c-4.33-3.63-3.59-9.78,1.57-13c4.06-2.53,9.66-2.28,13.06.58c4.33,3.63,3.59,9.78-1.57,13-4.05,2.52-9.65,2.28-13.06-.58m9.83,13.86l18.33-26.74c3.94-5.74-2.54-12.16-9.83-9.74l-48.31,13.87-.54,2.32l7.4,7.33l9.01-3.03c.68-.23,1.43-.08,1.89.37l16.37,16.22c1.52,1.49,4.44,1.19,5.68-.6" fill="#d67003"/><path d="M282.27,153.51l.67-5.53c.07-.56.67-1,1.33-.97l6.55.29c.66.03,1.15.51,1.08,1.07l-.67,5.53c-.07.56-.67,1-1.33.97l-6.54-.29c-.67-.03-1.16-.51-1.09-1.07" fill="#d67003"/><g><path d="M280.54,154.67c-4.33-3.63-3.59-9.79,1.57-13c4.06-2.53,9.66-2.28,13.06.58c4.33,3.63,3.59,9.78-1.57,13-4.05,2.52-9.65,2.28-13.06-.58m9.83,13.85l18.33-26.74c3.94-5.75-2.53-12.16-9.83-9.74l-48.85,16.18l7.41,7.33l9.01-3.03c.68-.23,1.43-.08,1.89.37l16.37,16.22c1.52,1.51,4.44,1.21,5.67-.59" fill="#ffee52"/><path d="M282.87,151.16l.67-5.53c.07-.56.67-1,1.33-.97l6.55.29c.67.03,1.15.51,1.08,1.07l-.67,5.53c-.07.56-.67,1-1.33.97l-6.55-.29c-.66-.03-1.15-.51-1.08-1.07" fill="#ffee52"/><path d="M282.89,179.42l3.83-5.59c.17-.24.14-.53-.06-.73l-6.27-6.21c-.34-.33-.99-.26-1.26.13l-3.8,5.62c-.16.24-.13.53.07.73l6.23,6.17c.35.35.99.28,1.26-.12" fill="#ffee52"/></g></g></g></g></g></g><script><![CDATA[!function(t,n){"object"==typeof exports&&"undefined"!=typeof module?module.exports=n():"function"==typeof define&&define.amd?define(n):((t="undefined"!=typeof globalThis?globalThis:t||self).__SVGATOR_PLAYER__=t.__SVGATOR_PLAYER__||{},t.__SVGATOR_PLAYER__["5c7f360c"]=n())}(this,(function(){"use strict";function t(t,n){var r=Object.keys(t);if(Object.getOwnPropertySymbols){var e=Object.getOwnPropertySymbols(t);n&&(e=e.filter((function(n){return Object.getOwnPropertyDescriptor(t,n).enumerable}))),r.push.apply(r,e)}return r}function n(n){for(var r=1;r<arguments.length;r++){var e=null!=arguments[r]?arguments[r]:{};r%2?t(Object(e),!0).forEach((function(t){u(n,t,e[t])})):Object.getOwnPropertyDescriptors?Object.defineProperties(n,Object.getOwnPropertyDescriptors(e)):t(Object(e)).forEach((function(t){Object.defineProperty(n,t,Object.getOwnPropertyDescriptor(e,t))}))}return n}function r(t){return(r="function"==typeof Symbol&&"symbol"==typeof Symbol.iterator?function(t){return typeof t}:function(t){return t&&"function"==typeof Symbol&&t.constructor===Symbol&&t!==Symbol.prototype?"symbol":typeof t})(t)}function e(t,n){if(!(t instanceof n))throw new TypeError("Cannot call a class as a function")}function i(t,n){for(var r=0;r<n.length;r++){var e=n[r];e.enumerable=e.enumerable||!1,e.configurable=!0,"value"in e&&(e.writable=!0),Object.defineProperty(t,e.key,e)}}function o(t,n,r){return n&&i(t.prototype,n),r&&i(t,r),t}function u(t,n,r){return n in t?Object.defineProperty(t,n,{value:r,enumerable:!0,configurable:!0,writable:!0}):t[n]=r,t}function a(t){return(a=Object.setPrototypeOf?Object.getPrototypeOf:function(t){return t.__proto__||Object.getPrototypeOf(t)})(t)}function l(t,n){return(l=Object.setPrototypeOf||function(t,n){return t.__proto__=n,t})(t,n)}function f(){if("undefined"==typeof Reflect||!Reflect.construct)return!1;if(Reflect.construct.sham)return!1;if("function"==typeof Proxy)return!0;try{return Boolean.prototype.valueOf.call(Reflect.construct(Boolean,[],(function(){}))),!0}catch(t){return!1}}function s(t,n,r){return(s=f()?Reflect.construct:function(t,n,r){var e=[null];e.push.apply(e,n);var i=new(Function.bind.apply(t,e));return r&&l(i,r.prototype),i}).apply(null,arguments)}function c(t,n){if(n&&("object"==typeof n||"function"==typeof n))return n;if(void 0!==n)throw new TypeError("Derived constructors may only return object or undefined");return function(t){if(void 0===t)throw new ReferenceError("this hasn't been initialised - super() hasn't been called");return t}(t)}function h(t,n,r){return(h="undefined"!=typeof Reflect&&Reflect.get?Reflect.get:function(t,n,r){var e=function(t,n){for(;!Object.prototype.hasOwnProperty.call(t,n)&&null!==(t=a(t)););return t}(t,n);if(e){var i=Object.getOwnPropertyDescriptor(e,n);return i.get?i.get.call(r):i.value}})(t,n,r||t)}function v(t){return function(t){if(Array.isArray(t))return y(t)}(t)||function(t){if("undefined"!=typeof Symbol&&null!=t[Symbol.iterator]||null!=t["@@iterator"])return Array.from(t)}(t)||function(t,n){if(!t)return;if("string"==typeof t)return y(t,n);var r=Object.prototype.toString.call(t).slice(8,-1);"Object"===r&&t.constructor&&(r=t.constructor.name);if("Map"===r||"Set"===r)return Array.from(t);if("Arguments"===r||/^(?:Ui|I)nt(?:8|16|32)(?:Clamped)?Array$/.test(r))return y(t,n)}(t)||function(){throw new TypeError("Invalid attempt to spread non-iterable instance.\nIn order to be iterable, non-array objects must have a [Symbol.iterator]() method.")}()}function y(t,n){(null==n||n>t.length)&&(n=t.length);for(var r=0,e=new Array(n);r<n;r++)e[r]=t[r];return e}var g=d(Math.pow(10,-6));function d(t){var n=arguments.length>1&&void 0!==arguments[1]?arguments[1]:6;if(Number.isInteger(t))return t;var r=Math.pow(10,n);return Math.round((+t+Number.EPSILON)*r)/r}function p(t,n){var r=arguments.length>2&&void 0!==arguments[2]?arguments[2]:g;return Math.abs(t-n)<r}var m=Math.PI/180;function b(t){return t}function w(t,n,r){var e=1-r;return 3*r*e*(t*e+n*r)+r*r*r}function A(){var t=arguments.length>0&&void 0!==arguments[0]?arguments[0]:0,n=arguments.length>1&&void 0!==arguments[1]?arguments[1]:0,r=arguments.length>2&&void 0!==arguments[2]?arguments[2]:1,e=arguments.length>3&&void 0!==arguments[3]?arguments[3]:1;return t<0||t>1||r<0||r>1?null:p(t,n)&&p(r,e)?b:function(i){if(i<=0)return t>0?i*n/t:0===n&&r>0?i*e/r:0;if(i>=1)return r<1?1+(i-1)*(e-1)/(r-1):1===r&&t<1?1+(i-1)*(n-1)/(t-1):1;for(var o,u=0,a=1;u<a;){var l=w(t,r,o=(u+a)/2);if(p(i,l))break;l<i?u=o:a=o}return w(n,e,o)}}function x(){return 1}function k(t){return 1===t?1:0}function S(){var t=arguments.length>0&&void 0!==arguments[0]?arguments[0]:1,n=arguments.length>1&&void 0!==arguments[1]?arguments[1]:0;if(1===t){if(0===n)return k;if(1===n)return x}var r=1/t;return function(t){return t>=1?1:(t+=n*r)-t%r}}var _=Math.sin,O=Math.cos,j=Math.acos,M=Math.asin,P=Math.tan,E=Math.atan2,I=Math.PI/180,R=180/Math.PI,F=Math.sqrt,N=function(){function t(){var n=arguments.length>0&&void 0!==arguments[0]?arguments[0]:1,r=arguments.length>1&&void 0!==arguments[1]?arguments[1]:0,i=arguments.length>2&&void 0!==arguments[2]?arguments[2]:0,o=arguments.length>3&&void 0!==arguments[3]?arguments[3]:1,u=arguments.length>4&&void 0!==arguments[4]?arguments[4]:0,a=arguments.length>5&&void 0!==arguments[5]?arguments[5]:0;e(this,t),this.m=[n,r,i,o,u,a],this.i=null,this.w=null,this.s=null}return o(t,[{key:"determinant",get:function(){var t=this.m;return t[0]*t[3]-t[1]*t[2]}},{key:"isIdentity",get:function(){if(null===this.i){var t=this.m;this.i=1===t[0]&&0===t[1]&&0===t[2]&&1===t[3]&&0===t[4]&&0===t[5]}return this.i}},{key:"point",value:function(t,n){var r=this.m;return{x:r[0]*t+r[2]*n+r[4],y:r[1]*t+r[3]*n+r[5]}}},{key:"translateSelf",value:function(){var t=arguments.length>0&&void 0!==arguments[0]?arguments[0]:0,n=arguments.length>1&&void 0!==arguments[1]?arguments[1]:0;if(!t&&!n)return this;var r=this.m;return r[4]+=r[0]*t+r[2]*n,r[5]+=r[1]*t+r[3]*n,this.w=this.s=this.i=null,this}},{key:"rotateSelf",value:function(){var t=arguments.length>0&&void 0!==arguments[0]?arguments[0]:0;if(t%=360){var n=_(t*=I),r=O(t),e=this.m,i=e[0],o=e[1];e[0]=i*r+e[2]*n,e[1]=o*r+e[3]*n,e[2]=e[2]*r-i*n,e[3]=e[3]*r-o*n,this.w=this.s=this.i=null}return this}},{key:"scaleSelf",value:function(){var t=arguments.length>0&&void 0!==arguments[0]?arguments[0]:1,n=arguments.length>1&&void 0!==arguments[1]?arguments[1]:1;if(1!==t||1!==n){var r=this.m;r[0]*=t,r[1]*=t,r[2]*=n,r[3]*=n,this.w=this.s=this.i=null}return this}},{key:"skewSelf",value:function(t,n){if(n%=360,(t%=360)||n){var r=this.m,e=r[0],i=r[1],o=r[2],u=r[3];t&&(t=P(t*I),r[2]+=e*t,r[3]+=i*t),n&&(n=P(n*I),r[0]+=o*n,r[1]+=u*n),this.w=this.s=this.i=null}return this}},{key:"resetSelf",value:function(){var t=arguments.length>0&&void 0!==arguments[0]?arguments[0]:1,n=arguments.length>1&&void 0!==arguments[1]?arguments[1]:0,r=arguments.length>2&&void 0!==arguments[2]?arguments[2]:0,e=arguments.length>3&&void 0!==arguments[3]?arguments[3]:1,i=arguments.length>4&&void 0!==arguments[4]?arguments[4]:0,o=arguments.length>5&&void 0!==arguments[5]?arguments[5]:0,u=this.m;return u[0]=t,u[1]=n,u[2]=r,u[3]=e,u[4]=i,u[5]=o,this.w=this.s=this.i=null,this}},{key:"recomposeSelf",value:function(){var t=arguments.length>0&&void 0!==arguments[0]?arguments[0]:null,n=arguments.length>1&&void 0!==arguments[1]?arguments[1]:null,r=arguments.length>2&&void 0!==arguments[2]?arguments[2]:null,e=arguments.length>3&&void 0!==arguments[3]?arguments[3]:null,i=arguments.length>4&&void 0!==arguments[4]?arguments[4]:null;return this.isIdentity||this.resetSelf(),t&&(t.x||t.y)&&this.translateSelf(t.x,t.y),n&&this.rotateSelf(n),r&&(r.x&&this.skewSelf(r.x,0),r.y&&this.skewSelf(0,r.y)),!e||1===e.x&&1===e.y||this.scaleSelf(e.x,e.y),i&&(i.x||i.y)&&this.translateSelf(i.x,i.y),this}},{key:"decompose",value:function(){var t=arguments.length>0&&void 0!==arguments[0]?arguments[0]:0,n=arguments.length>1&&void 0!==arguments[1]?arguments[1]:0,r=this.m,e=r[0]*r[0]+r[1]*r[1],i=[[r[0],r[1]],[r[2],r[3]]],o=F(e);if(0===o)return{origin:{x:d(r[4]),y:d(r[5])},translate:{x:d(t),y:d(n)},scale:{x:0,y:0},skew:{x:0,y:0},rotate:0};i[0][0]/=o,i[0][1]/=o;var u=r[0]*r[3]-r[1]*r[2]<0;u&&(o=-o);var a=i[0][0]*i[1][0]+i[0][1]*i[1][1];i[1][0]-=i[0][0]*a,i[1][1]-=i[0][1]*a;var l=F(i[1][0]*i[1][0]+i[1][1]*i[1][1]);if(0===l)return{origin:{x:d(r[4]),y:d(r[5])},translate:{x:d(t),y:d(n)},scale:{x:d(o),y:0},skew:{x:0,y:0},rotate:0};i[1][0]/=l,i[1][1]/=l,a/=l;var f=0;return i[1][1]<0?(f=j(i[1][1])*R,i[0][1]<0&&(f=360-f)):f=M(i[0][1])*R,u&&(f=-f),a=E(a,F(i[0][0]*i[0][0]+i[0][1]*i[0][1]))*R,u&&(a=-a),{origin:{x:d(r[4]),y:d(r[5])},translate:{x:d(t),y:d(n)},scale:{x:d(o),y:d(l)},skew:{x:d(a),y:0},rotate:d(f)}}},{key:"clone",value:function(){var t=this.m;return new this.constructor(t[0],t[1],t[2],t[3],t[4],t[5])}},{key:"toString",value:function(){var t=arguments.length>0&&void 0!==arguments[0]?arguments[0]:" ";if(null===this.s){var n=this.m.map((function(t){return d(t)}));1===n[0]&&0===n[1]&&0===n[2]&&1===n[3]?this.s="translate("+n[4]+t+n[5]+")":this.s="matrix("+n.join(t)+")"}return this.s}}],[{key:"create",value:function(t){return t?Array.isArray(t)?s(this,v(t)):t instanceof this?t.clone():(new this).recomposeSelf(t.origin,t.rotate,t.skew,t.scale,t.translate):new this}}]),t}();function T(t,n,r){return t>=.5?r:n}function B(t,n,r){return 0===t||n===r?n:t*(r-n)+n}function q(t,n,r){var e=B(t,n,r);return e<=0?0:e}function L(t,n,r){var e=B(t,n,r);return e<=0?0:e>=1?1:e}function C(t,n,r){return 0===t?n:1===t?r:{x:B(t,n.x,r.x),y:B(t,n.y,r.y)}}function D(t,n,r){var e=function(t,n,r){return Math.round(B(t,n,r))}(t,n,r);return e<=0?0:e>=255?255:e}function z(t,n,r){return 0===t?n:1===t?r:{r:D(t,n.r,r.r),g:D(t,n.g,r.g),b:D(t,n.b,r.b),a:B(t,null==n.a?1:n.a,null==r.a?1:r.a)}}function V(t,n){for(var r=[],e=0;e<t;e++)r.push(n);return r}function G(t,n){if(--n<=0)return t;var r=(t=Object.assign([],t)).length;do{for(var e=0;e<r;e++)t.push(t[e])}while(--n>0);return t}var Y,$=function(){function t(n){e(this,t),this.list=n,this.length=n.length}return o(t,[{key:"setAttribute",value:function(t,n){for(var r=this.list,e=0;e<this.length;e++)r[e].setAttribute(t,n)}},{key:"removeAttribute",value:function(t){for(var n=this.list,r=0;r<this.length;r++)n[r].removeAttribute(t)}},{key:"style",value:function(t,n){for(var r=this.list,e=0;e<this.length;e++)r[e].style[t]=n}}]),t}(),U=/-./g,Q=function(t,n){return n.toUpperCase()};function H(t){return"function"==typeof t?t:T}function J(t){return t?"function"==typeof t?t:Array.isArray(t)?function(t){var n=arguments.length>1&&void 0!==arguments[1]?arguments[1]:b;if(!Array.isArray(t))return n;switch(t.length){case 1:return S(t[0])||n;case 2:return S(t[0],t[1])||n;case 4:return A(t[0],t[1],t[2],t[3])||n}return n}(t,null):function(t,n){var r=arguments.length>2&&void 0!==arguments[2]?arguments[2]:b;switch(t){case"linear":return b;case"steps":return S(n.steps||1,n.jump||0)||r;case"bezier":case"cubic-bezier":return A(n.x1||0,n.y1||0,n.x2||0,n.y2||0)||r}return r}(t.type,t.value,null):null}function Z(t,n,r){var e=arguments.length>3&&void 0!==arguments[3]&&arguments[3],i=n.length-1;if(t<=n[0].t)return e?[0,0,n[0].v]:n[0].v;if(t>=n[i].t)return e?[i,1,n[i].v]:n[i].v;var o,u=n[0],a=null;for(o=1;o<=i;o++){if(!(t>n[o].t)){a=n[o];break}u=n[o]}return null==a?e?[i,1,n[i].v]:n[i].v:u.t===a.t?e?[o,1,a.v]:a.v:(t=(t-u.t)/(a.t-u.t),u.e&&(t=u.e(t)),e?[o,t,r(t,u.v,a.v)]:r(t,u.v,a.v))}function K(t,n){var r=arguments.length>2&&void 0!==arguments[2]?arguments[2]:null;return t&&t.length?"function"!=typeof n?null:("function"!=typeof r&&(r=null),function(e){var i=Z(e,t,n);return null!=i&&r&&(i=r(i)),i}):null}function W(t,n){return t.t-n.t}function X(t,n,e,i,o){var u,a="@"===e[0],l="#"===e[0],f=Y[e],s=T;switch(a?(u=e.substr(1),e=u.replace(U,Q)):l&&(e=e.substr(1)),r(f)){case"function":if(s=f(i,o,Z,J,e,a,n,t),l)return s;break;case"string":s=K(i,H(f));break;case"object":if((s=K(i,H(f.i),f.f))&&"function"==typeof f.u)return f.u(n,s,e,a,t)}return s?function(t,n,r){if(arguments.length>3&&void 0!==arguments[3]&&arguments[3])return t instanceof $?function(e){return t.style(n,r(e))}:function(e){return t.style[n]=r(e)};if(Array.isArray(n)){var e=n.length;return function(i){var o=r(i);if(null==o)for(var u=0;u<e;u++)t[u].removeAttribute(n);else for(var a=0;a<e;a++)t[a].setAttribute(n,o)}}return function(e){var i=r(e);null==i?t.removeAttribute(n):t.setAttribute(n,i)}}(n,e,s,a):null}function tt(t,n,e,i){if(!i||"object"!==r(i))return null;var o=null,u=null;return Array.isArray(i)?u=function(t){if(!t||!t.length)return null;for(var n=0;n<t.length;n++)t[n].e&&(t[n].e=J(t[n].e));return t.sort(W)}(i):(u=i.keys,o=i.data||null),u?X(t,n,e,u,o):null}function nt(t,n,r){if(!r)return null;var e=[];for(var i in r)if(r.hasOwnProperty(i)){var o=tt(t,n,i,r[i]);o&&e.push(o)}return e.length?e:null}function rt(t,n){if(!n.duration||n.duration<0)return null;var r=function(t,n){if(!n)return null;var r=[];if(Array.isArray(n))for(var e=n.length,i=0;i<e;i++){var o=n[i];if(2===o.length){var u=null;if("string"==typeof o[0])u=t.getElementById(o[0]);else if(Array.isArray(o[0])){u=[];for(var a=0;a<o[0].length;a++)if("string"==typeof o[0][a]){var l=t.getElementById(o[0][a]);l&&u.push(l)}u=u.length?1===u.length?u[0]:new $(u):null}if(u){var f=nt(t,u,o[1]);f&&(r=r.concat(f))}}}else for(var s in n)if(n.hasOwnProperty(s)){var c=t.getElementById(s);if(c){var h=nt(t,c,n[s]);h&&(r=r.concat(h))}}return r.length?r:null}(t,n.elements);return r?function(t,n){var r=arguments.length>2&&void 0!==arguments[2]?arguments[2]:1/0,e=arguments.length>3&&void 0!==arguments[3]?arguments[3]:1,i=arguments.length>4&&void 0!==arguments[4]&&arguments[4],o=arguments.length>5&&void 0!==arguments[5]?arguments[5]:1,u=t.length,a=e>0?n:0;i&&r%2==0&&(a=n-a);var l=null;return function(f,s){var c=f%n,h=1+(f-c)/n;s*=e,i&&h%2==0&&(s=-s);var v=!1;if(h>r)c=a,v=!0,-1===o&&(c=e>0?0:n);else if(s<0&&(c=n-c),c===l)return!1;l=c;for(var y=0;y<u;y++)t[y](c);return v}}(r,n.duration,n.iterations||1/0,n.direction||1,!!n.alternate,n.fill||1):null}function et(t){return+("0x"+(t.replace(/[^0-9a-fA-F]+/g,"")||27))}function it(t,n,r){return!t||!r||n>t.length?t:t.substring(0,n)+it(t.substring(n+1),r,r)}function ot(t){var n=arguments.length>1&&void 0!==arguments[1]?arguments[1]:27;return!t||t%n?t%n:ot(t/n,n)}function ut(t,n,r){if(t&&t.length){var e=et(r),i=et(n),o=ot(e)+5,u=it(t,ot(e,5),o);return u=u.replace(/\x7c$/g,"==").replace(/\x2f$/g,"="),u=function(t,n,r){var e=+("0x"+t.substring(0,4));t=t.substring(4);for(var i=n%e+r%27,o=[],u=0;u<t.length;u+=2)if("|"!==t[u]){var a=+("0x"+t[u]+t[u+1])-i;o.push(a)}else{var l=+("0x"+t.substring(u+1,u+1+4))-i;u+=3,o.push(l)}return String.fromCharCode.apply(String,o)}(u=(u=atob(u)).replace(/[\x41-\x5A]/g,""),i,e),u=JSON.parse(u)}}Number.isInteger||(Number.isInteger=function(t){return"number"==typeof t&&isFinite(t)&&Math.floor(t)===t}),Number.EPSILON||(Number.EPSILON=2220446049250313e-31);var at=function(){function t(n,r){var i=arguments.length>2&&void 0!==arguments[2]?arguments[2]:{};e(this,t),this._id=0,this._running=!1,this._rollingBack=!1,this._animations=n,this.duration=r.duration,this.alternate=r.alternate,this.fill=r.fill,this.iterations=r.iterations,this.direction=i.direction||1,this.speed=i.speed||1,this.fps=i.fps||100,this.offset=i.offset||0,this.rollbackStartOffset=0}return o(t,[{key:"_rollback",value:function(){var t=this,n=1/0,r=null;this.rollbackStartOffset=this.offset,this._rollingBack||(this._rollingBack=!0,this._running=!0);this._id=window.requestAnimationFrame((function e(i){if(t._rollingBack){null==r&&(r=i);var o=i-r,u=t.rollbackStartOffset-o,a=Math.round(u*t.speed);if(a>t.duration&&n!=1/0){var l=!!t.alternate&&a/t.duration%2>1,f=a%t.duration;a=(f+=l?t.duration:0)||t.duration}var s=t.fps?1e3/t.fps:0,c=Math.max(0,a);if(c<n-s){t.offset=c,n=c;for(var h=t._animations,v=h.length,y=0;y<v;y++)h[y](c,t.direction)}var g=!1;if(t.iterations>0&&-1===t.fill){var d=t.iterations*t.duration,p=d==a;a=p?0:a,t.offset=p?0:t.offset,g=a>d}a>0&&t.offset>=a&&!g?t._id=window.requestAnimationFrame(e):t.stop()}}))}},{key:"_start",value:function(){var t=this,n=arguments.length>0&&void 0!==arguments[0]?arguments[0]:0,r=-1/0,e=null,i={},o=function o(u){t._running=!0,null==e&&(e=u);var a=Math.round((u-e+n)*t.speed),l=t.fps?1e3/t.fps:0;if(a>r+l&&!t._rollingBack){t.offset=a,r=a;for(var f=t._animations,s=f.length,c=0,h=0;h<s;h++)i[h]?c++:(i[h]=f[h](a,t.direction),i[h]&&c++);if(c===s)return void t._stop()}t._id=window.requestAnimationFrame(o)};this._id=window.requestAnimationFrame(o)}},{key:"_stop",value:function(){this._id&&window.cancelAnimationFrame(this._id),this._running=!1,this._rollingBack=!1}},{key:"play",value:function(){!this._rollingBack&&this._running||(this._rollingBack=!1,this.rollbackStartOffset>this.duration&&(this.offset=this.rollbackStartOffset-(this.rollbackStartOffset-this.offset)%this.duration,this.rollbackStartOffset=0),this._start(this.offset))}},{key:"stop",value:function(){this._stop(),this.offset=0,this.rollbackStartOffset=0;var t=this.direction,n=this._animations;window.requestAnimationFrame((function(){for(var r=0;r<n.length;r++)n[r](0,t)}))}},{key:"reachedToEnd",value:function(){return this.iterations>0&&this.offset>=this.iterations*this.duration}},{key:"restart",value:function(){this._stop(),this.offset=0,this._start()}},{key:"pause",value:function(){this._stop()}},{key:"reverse",value:function(){this.direction=-this.direction}}],[{key:"build",value:function(r,e){return delete r.animationSettings,r.options=ut(r.options,r.root,"5c7f360c"),r.animations.map((function(t){var e=ut(t.s,r.root,"5c7f360c");for(var i in delete t.s,r.animationSettings||(r.animationSettings=n({},e)),e)e.hasOwnProperty(i)&&(t[i]=e[i])})),(r=function(t,n){if(Y=n,!t||!t.root||!Array.isArray(t.animations))return null;for(var r=document.getElementsByTagName("svg"),e=!1,i=0;i<r.length;i++)if(r[i].id===t.root&&!r[i].svgatorAnimation){(e=r[i]).svgatorAnimation=!0;break}if(!e)return null;var o=t.animations.map((function(t){return rt(e,t)})).filter((function(t){return!!t}));return o.length?{element:e,animations:o,animationSettings:t.animationSettings,options:t.options||void 0}:null}(r,e))?{el:r.element,options:r.options||{},player:new t(r.animations,r.animationSettings,r.options)}:null}},{key:"push",value:function(t){return this.build(t)}},{key:"init",value:function(){var t=this,n=window.__SVGATOR_PLAYER__&&window.__SVGATOR_PLAYER__["5c7f360c"];Array.isArray(n)&&n.splice(0).forEach((function(n){return t.build(n)}))}}]),t}();function lt(t){return d(t)+""}function ft(t){var n=arguments.length>1&&void 0!==arguments[1]?arguments[1]:" ";return t&&t.length?t.map(lt).join(n):""}function st(t){if(!t)return"transparent";if(null==t.a||t.a>=1){var n=function(t){return 1===(t=parseInt(t).toString(16)).length?"0"+t:t},r=function(t){return t.charAt(0)===t.charAt(1)},e=n(t.r),i=n(t.g),o=n(t.b);return r(e)&&r(i)&&r(o)&&(e=e.charAt(0),i=i.charAt(0),o=o.charAt(0)),"#"+e+i+o}return"rgba("+t.r+","+t.g+","+t.b+","+t.a+")"}function ct(t){return t?"url(#"+t+")":"none"}!function(){for(var t=0,n=["ms","moz","webkit","o"],r=0;r<n.length&&!window.requestAnimationFrame;++r)window.requestAnimationFrame=window[n[r]+"RequestAnimationFrame"],window.cancelAnimationFrame=window[n[r]+"CancelAnimationFrame"]||window[n[r]+"CancelRequestAnimationFrame"];window.requestAnimationFrame||(window.requestAnimationFrame=function(n){var r=Date.now(),e=Math.max(0,16-(r-t)),i=window.setTimeout((function(){n(r+e)}),e);return t=r+e,i},window.cancelAnimationFrame=window.clearTimeout)}();var ht={f:null,i:function(t,n,r){return 0===t?n:1===t?r:{x:q(t,n.x,r.x),y:q(t,n.y,r.y)}},u:function(t,n){return function(r){var e=n(r);t.setAttribute("rx",lt(e.x)),t.setAttribute("ry",lt(e.y))}}},vt={f:null,i:function(t,n,r){return 0===t?n:1===t?r:{width:q(t,n.width,r.width),height:q(t,n.height,r.height)}},u:function(t,n){return function(r){var e=n(r);t.setAttribute("width",lt(e.width)),t.setAttribute("height",lt(e.height))}}};Object.freeze({M:2,L:2,Z:0,H:1,V:1,C:6,Q:4,T:2,S:4,A:7});var yt={},gt=null;function dt(t){var n=function(){if(gt)return gt;if("object"!==("undefined"==typeof document?"undefined":r(document))||!document.createElementNS)return{};var t=document.createElementNS("http://www.w3.org/2000/svg","svg");return t&&t.style?(t.style.position="absolute",t.style.opacity="0.01",t.style.zIndex="-9999",t.style.left="-9999px",t.style.width="1px",t.style.height="1px",gt={svg:t}):{}}().svg;if(!n)return function(t){return null};var e=document.createElementNS(n.namespaceURI,"path");e.setAttributeNS(null,"d",t),e.setAttributeNS(null,"fill","none"),e.setAttributeNS(null,"stroke","none"),n.appendChild(e);var i=e.getTotalLength();return function(t){var n=e.getPointAtLength(i*t);return{x:n.x,y:n.y}}}function pt(t){return yt[t]?yt[t]:yt[t]=dt(t)}function mt(t,n,r,e){if(!t||!e)return!1;var i=["M",t.x,t.y];if(n&&r&&(i.push("C"),i.push(n.x),i.push(n.y),i.push(r.x),i.push(r.y)),n?!r:r){var o=n||r;i.push("Q"),i.push(o.x),i.push(o.y)}return n||r||i.push("L"),i.push(e.x),i.push(e.y),i.join(" ")}function bt(t,n,r,e){var i=arguments.length>4&&void 0!==arguments[4]?arguments[4]:1,o=mt(t,n,r,e),u=pt(o);try{return u(i)}catch(t){return null}}function wt(t,n,r){return t+(n-t)*r}function At(t,n,r){var e=arguments.length>3&&void 0!==arguments[3]&&arguments[3],i={x:wt(t.x,n.x,r),y:wt(t.y,n.y,r)};return e&&(i.a=xt(t,n)),i}function xt(t,n){return Math.atan2(n.y-t.y,n.x-t.x)}function kt(t,n,r,e){var i=1-e;return i*i*t+2*i*e*n+e*e*r}function St(t,n,r,e){return 2*(1-e)*(n-t)+2*e*(r-n)}function _t(t,n,r,e){var i=arguments.length>4&&void 0!==arguments[4]&&arguments[4],o=bt(t,n,null,r,e);return o||(o={x:kt(t.x,n.x,r.x,e),y:kt(t.y,n.y,r.y,e)}),i&&(o.a=Ot(t,n,r,e)),o}function Ot(t,n,r,e){return Math.atan2(St(t.y,n.y,r.y,e),St(t.x,n.x,r.x,e))}function jt(t,n,r,e,i){var o=i*i;return i*o*(e-t+3*(n-r))+3*o*(t+r-2*n)+3*i*(n-t)+t}function Mt(t,n,r,e,i){var o=1-i;return 3*(o*o*(n-t)+2*o*i*(r-n)+i*i*(e-r))}function Pt(t,n,r,e,i){var o=arguments.length>5&&void 0!==arguments[5]&&arguments[5],u=bt(t,n,r,e,i);return u||(u={x:jt(t.x,n.x,r.x,e.x,i),y:jt(t.y,n.y,r.y,e.y,i)}),o&&(u.a=Et(t,n,r,e,i)),u}function Et(t,n,r,e,i){return Math.atan2(Mt(t.y,n.y,r.y,e.y,i),Mt(t.x,n.x,r.x,e.x,i))}function It(t,n,r){var e=arguments.length>3&&void 0!==arguments[3]&&arguments[3];if(Ft(n)){if(Nt(r))return _t(n,r.start,r,t,e)}else if(Ft(r)){if(n.end)return _t(n,n.end,r,t,e)}else{if(n.end)return r.start?Pt(n,n.end,r.start,r,t,e):_t(n,n.end,r,t,e);if(r.start)return _t(n,r.start,r,t,e)}return At(n,r,t,e)}function Rt(t,n,r){var e=It(t,n,r,!0);return e.a=function(t){return arguments.length>1&&void 0!==arguments[1]&&arguments[1]?t+Math.PI:t}(e.a)/m,e}function Ft(t){return!t.type||"corner"===t.type}function Nt(t){return null!=t.start&&!Ft(t)}var Tt=new N;var Bt={f:lt,i:B},qt={f:lt,i:L};function Lt(t,n,r){return t.map((function(t){return function(t,n,r){var e=t.v;if(!e||"g"!==e.t||e.s||!e.v||!e.r)return t;var i=r.getElementById(e.r),o=i&&i.querySelectorAll("stop")||[];return e.s=e.v.map((function(t,n){var r=o[n]&&o[n].getAttribute("offset");return{c:t,o:r=d(parseInt(r)/100)}})),delete e.v,t}(t,0,r)}))}var Ct={gt:"gradientTransform",c:{x:"cx",y:"cy"},rd:"r",f:{x:"x1",y:"y1"},to:{x:"x2",y:"y2"}};function Dt(t,n,e,i,o,u,a,l){return Lt(t,0,l),n=function(t,n,r){for(var e,i,o,u=t.length-1,a={},l=0;l<=u;l++)(e=t[l]).e&&(e.e=n(e.e)),e.v&&"g"===(i=e.v).t&&i.r&&(o=r.getElementById(i.r))&&(a[i.r]={e:o,s:o.querySelectorAll("stop")});return a}(t,i,l),function(i){var o=e(i,t,zt);if(!o)return"none";if("c"===o.t)return st(o.v);if("g"===o.t){if(!n[o.r])return ct(o.r);var u=n[o.r];return function(t,n){for(var r=t.s,e=r.length;e<n.length;e++){var i=r[r.length-1].cloneNode();i.id=Yt(i.id),t.e.appendChild(i),r=t.s=t.e.querySelectorAll("stop")}for(var o=0,u=r.length,a=n.length-1;o<u;o++)r[o].setAttribute("stop-color",st(n[Math.min(o,a)].c)),r[o].setAttribute("offset",n[Math.min(o,a)].o)}(u,o.s),Object.keys(Ct).forEach((function(t){if(void 0!==o[t])if("object"!==r(Ct[t])){var n,e="gt"===t?(n=o[t],Array.isArray(n)?"matrix("+n.join(" ")+")":""):o[t],i=Ct[t];u.e.setAttribute(i,e)}else Object.keys(Ct[t]).forEach((function(n){if(void 0!==o[t][n]){var r=o[t][n],e=Ct[t][n];u.e.setAttribute(e,r)}}))})),ct(o.r)}return"none"}}function zt(t,r,e){if(0===t)return r;if(1===t)return e;if(r&&e){var i=r.t;if(i===e.t)switch(r.t){case"c":return{t:i,v:z(t,r.v,e.v)};case"g":if(r.r===e.r){var o={t:i,s:Vt(t,r.s,e.s),r:r.r};return r.gt&&e.gt&&(o.gt=function(t,n,r){var e=n.length;if(e!==r.length)return T(t,n,r);for(var i=new Array(e),o=0;o<e;o++)i[o]=B(t,n[o],r[o]);return i}(t,r.gt,e.gt)),r.c?(o.c=C(t,r.c,e.c),o.rd=q(t,r.rd,e.rd)):r.f&&(o.f=C(t,r.f,e.f),o.to=C(t,r.to,e.to)),o}}if("c"===r.t&&"g"===e.t||"c"===e.t&&"g"===r.t){var u="c"===r.t?r:e,a="g"===r.t?n({},r):n({},e),l=a.s.map((function(t){return{c:u.v,o:t.o}}));return a.s="c"===r.t?Vt(t,l,a.s):Vt(t,a.s,l),a}}return T(t,r,e)}function Vt(t,n,r){if(n.length===r.length)return n.map((function(n,e){return Gt(t,n,r[e])}));for(var e=Math.max(n.length,r.length),i=[],o=0;o<e;o++){var u=Gt(t,n[Math.min(o,n.length-1)],r[Math.min(o,r.length-1)]);i.push(u)}return i}function Gt(t,n,r){return{o:L(t,n.o,r.o||0),c:z(t,n.c,r.c||{})}}function Yt(t){return t.replace(/-fill-([0-9]+)$/,(function(t,n){return"-fill-"+(+n+1)}))}var $t={fill:Dt,"fill-opacity":qt,stroke:Dt,"stroke-opacity":qt,"stroke-width":Bt,"stroke-dashoffset":{f:lt,i:B},"stroke-dasharray":{f:function(t){var n=arguments.length>1&&void 0!==arguments[1]?arguments[1]:" ";return t&&t.length>0&&(t=t.map((function(t){return d(t,4)}))),ft(t,n)},i:function(t,n,r){var e,i,o,u=n.length,a=r.length;if(u!==a)if(0===u)n=V(u=a,0);else if(0===a)a=u,r=V(u,0);else{var l=(o=(e=u)*(i=a)/function(t,n){for(var r;n;)r=n,n=t%n,t=r;return t||1}(e,i))<0?-o:o;n=G(n,Math.floor(l/u)),r=G(r,Math.floor(l/a)),u=a=l}for(var f=[],s=0;s<u;s++)f.push(d(q(t,n[s],r[s])));return f}},opacity:qt,transform:function(t,n,e,i){if(!(t=function(t,n){if(!t||"object"!==r(t))return null;var e=!1;for(var i in t)t.hasOwnProperty(i)&&(t[i]&&t[i].length?(t[i].forEach((function(t){t.e&&(t.e=n(t.e))})),e=!0):delete t[i]);return e?t:null}(t,i)))return null;var o=function(r,i,o){var u=arguments.length>3&&void 0!==arguments[3]?arguments[3]:null;return t[r]?e(i,t[r],o):n&&n[r]?n[r]:u};return n&&n.a&&t.o?function(n){var r=e(n,t.o,Rt);return Tt.recomposeSelf(r,o("r",n,B,0)+r.a,o("k",n,C),o("s",n,C),o("t",n,C)).toString()}:function(t){return Tt.recomposeSelf(o("o",t,It,null),o("r",t,B,0),o("k",t,C),o("s",t,C),o("t",t,C)).toString()}},r:Bt,"#size":vt,"#radius":ht,_:function(t,n){if(Array.isArray(t))for(var r=0;r<t.length;r++)this[t[r]]=n;else this[t]=n}},Ut=function(t){!function(t,n){if("function"!=typeof n&&null!==n)throw new TypeError("Super expression must either be null or a function");t.prototype=Object.create(n&&n.prototype,{constructor:{value:t,writable:!0,configurable:!0}}),n&&l(t,n)}(u,t);var n,r,i=(n=u,r=f(),function(){var t,e=a(n);if(r){var i=a(this).constructor;t=Reflect.construct(e,arguments,i)}else t=e.apply(this,arguments);return c(this,t)});function u(){return e(this,u),i.apply(this,arguments)}return o(u,null,[{key:"build",value:function(t){var n=h(a(u),"build",this).call(this,t,$t);if(!n)return null;n.el,n.options,function(t,n,r){t.play()}(n.player)}}]),u}(at);return Ut.init(),Ut}));
(function(s,i,o,w){w[o]=w[o]||{};w[o][s]=w[o][s]||[];w[o][s].push(i);})('5c7f360c',{"root":"eXeiF8t3Qbr1","animations":[{"elements":{"eXeiF8t3Qbr3":{"transform":{"data":{"s":{"x":0.79565,"y":0.79565},"t":{"x":-86.592361,"y":-85.741442}},"keys":{"o":[{"t":0,"v":{"x":172.758477,"y":-130.106031,"type":"corner"}},{"t":2400,"v":{"x":169.726556,"y":518.731513,"type":"corner"}}],"r":[{"t":0,"v":-96.155973},{"t":2400,"v":33.760248}]}}},"eXeiF8t3Qbr51":{"transform":{"data":{"s":{"x":0.560733,"y":0.560733},"t":{"x":-278.573197,"y":-148.879358}},"keys":{"o":[{"t":0,"v":{"x":333.763213,"y":-72.379983,"type":"corner"}},{"t":2400,"v":{"x":336.7543,"y":476.73048,"type":"corner"}}],"r":[{"t":0,"v":-178.685159},{"t":2400,"v":10.988591}]}}},"eXeiF8t3Qbr93":{"transform":{"data":{"s":{"x":0.450284,"y":0.450284},"t":{"x":-278.573197,"y":-148.879358}},"keys":{"o":[{"t":0,"v":{"x":32.72512,"y":-43.760152,"type":"corner"}},{"t":2400,"v":{"x":30.393134,"y":474.783737,"type":"corner"}}],"r":[{"t":0,"v":49.23542},{"t":2400,"v":-164.47305}]}}},"eXeiF8t3Qbr135":{"transform":{"data":{"s":{"x":0.533317,"y":0.533317},"t":{"x":-278.573197,"y":-148.879358}},"keys":{"o":[{"t":0,"v":{"x":221.802837,"y":-65.156656,"type":"corner"}},{"t":2400,"v":{"x":256.469839,"y":463.18872,"type":"corner"}}],"r":[{"t":0,"v":-105.5812},{"t":2400,"v":132.362199}]}}},"eXeiF8t3Qbr177":{"transform":{"data":{"s":{"x":0.32224,"y":0.32224},"t":{"x":-278.573197,"y":-148.879358}},"keys":{"o":[{"t":0,"v":{"x":32.72512,"y":-43.760152,"type":"corner"}},{"t":2400,"v":{"x":29.653322,"y":570.745535,"type":"corner"}}],"r":[{"t":0,"v":-60.110916},{"t":2400,"v":14.182703}]}}},"eXeiF8t3Qbr219":{"transform":{"data":{"s":{"x":0.32224,"y":0.32224},"t":{"x":-278.573197,"y":-148.879358}},"keys":{"o":[{"t":0,"v":{"x":74.969198,"y":-365.580423,"type":"corner"}},{"t":2400,"v":{"x":76.902263,"y":529.083088,"type":"corner"}}],"r":[{"t":0,"v":54.748924},{"t":2400,"v":-125.201897}]}}},"eXeiF8t3Qbr261":{"transform":{"data":{"s":{"x":0.32224,"y":0.32224},"t":{"x":-278.573197,"y":-148.879358}},"keys":{"o":[{"t":0,"v":{"x":36.125953,"y":-272.736747,"type":"corner"}},{"t":2400,"v":{"x":29.653322,"y":570.745535,"type":"corner"}}],"r":[{"t":0,"v":-60.110916},{"t":2400,"v":-80.006825}]}}},"eXeiF8t3Qbr303":{"transform":{"data":{"s":{"x":0.32224,"y":0.32224},"t":{"x":-278.573197,"y":-148.879358}},"keys":{"o":[{"t":0,"v":{"x":38.56781,"y":-172.946157,"type":"corner"}},{"t":2400,"v":{"x":28.412119,"y":581.638754,"type":"corner"}}],"r":[{"t":0,"v":10.532925},{"t":2400,"v":-191.161708}]}}}},"s":"MQDA1NGI0NWJHOWRhZWBFiOWFhZGEyYThhNzVQiUTczNzE2OTY5Njk2GNUg1Ylk5ZElhMmFiOJWU5Y2FkYTJDYThWYTSc1YjczNmFHNjU1YkVShMmFkOWVhYjlhYWRhHMmE4YTdhY081YjczNWjk2NTViOWZPYTJhNWIE1NWI3MzY2NmFLNjUN1YjlhYTVhZDllYWJhINzlhYWQ5ZTViNzM5ZKjlhYTVhYzllNjU1YmHFjTWE5OWU5ZTlkNWIJ3MzZhYjY/"}],"options":"MUDAxMDg4MmY4MDgxNmJU3ZjgxMmY0NzJmNzkB3YzZlNzEyZjhh"},'__SVGATOR_PLAYER__',window)]]></script></svg>